/* XPM */
static char *_e9f53ff9671413aedaddb90e955b5cbnYGrbKUx3leitunJ[] = {
/* columns rows colors chars-per-pixel */
"64 64 250 2 ",
"   c #0E0502",
".  c #0D0804",
"X  c #110401",
"o  c #1F1304",
"O  c #230F08",
"+  c #221304",
"@  c #24130A",
"#  c #29170C",
"$  c #2A160C",
"%  c #2D1A0B",
"&  c #331404",
"*  c #3B1305",
"=  c #371807",
"-  c #3A1B06",
";  c #341C0B",
":  c #3B1C0A",
">  c #2F1C13",
",  c #361E11",
"<  c #35210E",
"1  c #3A220E",
"2  c #362212",
"3  c #3C2413",
"4  c #3D2A17",
"5  c #3F2D21",
"6  c #421506",
"7  c #451809",
"8  c #451A0A",
"9  c #4B1B0C",
"0  c #521D0D",
"q  c #5B1F0F",
"w  c #4A1D10",
"e  c #591F12",
"r  c #611F13",
"t  c #4E220D",
"y  c #49290F",
"u  c #56250E",
"i  c #51310F",
"p  c #432513",
"a  c #4A2513",
"s  c #422914",
"d  c #4C2B14",
"f  c #472619",
"g  c #432D1B",
"h  c #4C2B1A",
"j  c #532512",
"k  c #5B2312",
"l  c #532A14",
"z  c #5C2C14",
"x  c #562619",
"c  c #542B1A",
"v  c #5B2D1B",
"b  c #4E3112",
"n  c #47341D",
"m  c #4B341B",
"M  c #533314",
"N  c #5C3215",
"B  c #553915",
"V  c #5A3D15",
"C  c #54331B",
"Z  c #5B341D",
"A  c #553B1D",
"S  c #5B3D1B",
"D  c #632513",
"F  c #6C2615",
"G  c #632B14",
"H  c #6C2A16",
"J  c #672619",
"K  c #662A19",
"L  c #6C2B1A",
"P  c #732A16",
"I  c #722619",
"U  c #742B1B",
"Y  c #7B2C1C",
"T  c #643619",
"R  c #6D321D",
"E  c #643D1C",
"W  c #74331D",
"Q  c #7B341E",
"!  c #783A1D",
"~  c #402E21",
"^  c #5C2C21",
"/  c #4C3524",
"(  c #4D3925",
")  c #4B3B2D",
"_  c #533C23",
"`  c #573824",
"'  c #553C2C",
"]  c #593E2D",
"[  c #583E30",
"{  c #752D21",
"}  c #623622",
"|  c #643C23",
" . c #6A3C22",
".. c #733521",
"X. c #7B3521",
"o. c #773B25",
"O. c #7C3B24",
"+. c #5B4116",
"@. c #5D411B",
"#. c #624416",
"$. c #62431C",
"%. c #6A421E",
"&. c #654A1C",
"*. c #6A4D1C",
"=. c #70441F",
"-. c #6C511E",
";. c #71561E",
":. c #564224",
">. c #5A4425",
",. c #594529",
"<. c #5B422D",
"1. c #5D492B",
"2. c #5D4332",
"3. c #584433",
"4. c #654422",
"5. c #6C4323",
"6. c #6B4B24",
"7. c #6B4329",
"8. c #674929",
"9. c #634B2C",
"0. c #7A4D25",
"q. c #764828",
"w. c #744C2B",
"e. c #6E5323",
"r. c #68522C",
"t. c #725522",
"y. c #755923",
"u. c #73532B",
"i. c #785A2A",
"p. c #7B5E2B",
"a. c #614633",
"s. c #644A34",
"d. c #694B34",
"f. c #63473A",
"g. c #654B39",
"h. c #774830",
"j. c #6C5433",
"k. c #665239",
"l. c #745B34",
"z. c #7D5C33",
"x. c #77583A",
"c. c #7F6127",
"v. c #7E612B",
"b. c #7C6339",
"n. c #5F5344",
"m. c #625244",
"M. c #745D48",
"N. c #77634B",
"B. c #79664B",
"V. c #6D6455",
"C. c #746354",
"Z. c #786756",
"A. c #7C6955",
"S. c #766A5A",
"D. c #7A6D5D",
"F. c #7E705F",
"G. c #7C7363",
"H. c #812B1E",
"J. c #823A1D",
"K. c #802C21",
"L. c #833B24",
"P. c #843926",
"I. c #844125",
"U. c #8A4426",
"Y. c #84432A",
"T. c #8B442A",
"R. c #85482C",
"E. c #8C4A2C",
"W. c #90472C",
"Q. c #914B2D",
"!. c #845A2E",
"~. c #92502E",
"^. c #8C4B31",
"/. c #934E32",
"(. c #855C34",
"). c #8A5D33",
"_. c #865C38",
"`. c #945533",
"'. c #85672D",
"]. c #836235",
"[. c #8A6734",
"{. c #84643A",
"}. c #8B643A",
"|. c #8B6B3D",
" X c #91653B",
".X c #956A3C",
"XX c #986B3A",
"oX c #8F7138",
"OX c #97713E",
"+X c #A1783F",
"@X c #846743",
"#X c #8C6D41",
"$X c #936C42",
"%X c #9A6E42",
"&X c #936F4B",
"*X c #8E7143",
"=X c #947444",
"-X c #9C7243",
";X c #977944",
":X c #9A7A45",
">X c #93714B",
",X c #9A744D",
"<X c #9C7C49",
"1X c #826D56",
"2X c #85745D",
"3X c #9B7651",
"4X c #9E7A52",
"5X c #A27545",
"6X c #A57B46",
"7X c #A47B4B",
"8X c #A87B49",
"9X c #A37C54",
"0X c #A97E57",
"qX c #817564",
"wX c #8B7665",
"eX c #847966",
"rX c #8C7A64",
"tX c #847C6B",
"yX c #8C7D69",
"uX c #897F6E",
"iX c #9F814C",
"pX c #A9854F",
"aX c #A78456",
"sX c #AB8155",
"dX c #AD835A",
"fX c #B18554",
"gX c #B1855B",
"hX c #B58A5D",
"jX c #BA8D5F",
"kX c #86816D",
"lX c #88806D",
"zX c #96836D",
"xX c #9B856A",
"cX c #8D8370",
"vX c #8F8975",
"bX c #918673",
"nX c #918975",
"mX c #998C76",
"MX c #978E7B",
"NX c #9B8D79",
"BX c #9B917A",
"VX c #B68B61",
"CX c #BB8E61",
"ZX c #BE9364",
"AX c #A18F7A",
"SX c #A19079",
"DX c #C3925D",
"FX c #C08F62",
"GX c #C19364",
"HX c #C19369",
/* pixels */
">X<./ / / / / / _ ( ` ' ' ` ' ' ' ' <.] ] ] ] <.] <.<.<.a.<.j.GXGXx.2.<.<.<.<.] 2.] ] ] ] ' ' ' _ ' ) / _ / ( ( ( / / / / / ] &X",
">X> X X X X X X X   X X X   X X   X X X       X X X   X X X , GXHXf X X X     X X .   .   X X       X X   . X X X X   X X X # &X",
"&Xa J U L * k Y J * L U 0 9 U L 6 J U 8 C.tXmXw J Y e 7 L U G GXHXC @.e.e.- M e.M 3.qXcXN.b t.&.& S t.6.- B y.+.= 4.e.; @.e.b &X",
"&Xa F { I * D H.J * I Y 0 0 Y I 6 I { 9 S.uXMX9 J Y k 7 U U T GXHXZ @.t.*.1 M y.B m.tXvXC.b t.*.& V y.*.- A y.@.: 6.t.- @.y.b &X",
"&Xa R L.W & H q.F = X.P.9 j L.W 6 ! X.7 S.lXBX8 ..O.k 9 O.Q Z GXGXA @.v.;.- +.p.B k.tXnXB.B c.-.& @.v.-.- +.v.+.; y.;.= 9.p.i &X",
"&Xp D Y P 6 D Y F * F Y 0 0 Y P 6 F Y 9 S.lXBXa F Y k 9 I Y G GXGXB +.y.*.: B ;.B m.G.nXB.i ;.*.& +.;.*.- V y.#.= *.;.< +.;.b &X",
"&Xa o./.O.& o.Q.R : R.T.j z /.O.6 T.Y.9 S.lXBX7 q.E.G t ^.U.z GXGXZ e.[.c.- @.'.@.k.G.vXB.@.[.y.& e.oXi.- *.].*.- v.v.- y.c.b &X",
"&Xt G Q.P * ! `.W 6 I.U.0 T U.I.6 q.U.9 S.lXBXw L.T.L 9 R.I.N GXGXZ e.oX'.1 &.'.&.m.tXvXB.B oXp.& +.'.;.- e.'.e.& '.c.- i.oXb &X",
">Xa O.Q.E.* D Q.F * L.Q.0 u E.W 6 I.U.9 S.kXmXt W E.k 7 T.Q.G GXZXZ +.[.;.; +.'.V k.G.nXB.i '.-.& e.'.].= E '.&.; p.'.- &.'.b >X",
">Xa W T.! = W `.W - L.I.0 l U.! 6 o.I.9 S.lXBX9 ! U.G w O.L.N GXGXA e.oXc.: $.'.V k.tXnXB.S oXy.& *.'.y.= &.'.&.- i.c.- u.'.b >X",
"&Xa R L.Q * L L.H - X.P.0 j L.Q 6 X.L.9 S.lXmXp W P.D 9 O.P.N GXGX` &.'.y.: +.v.B k.tXvXB.B p.t.& &.v.y.- #.'.#.- i.y.- 6.p.M >X",
"&Xy U P.Q * L P.L 6 X.P.0 k P.Q 6 Q P.9 S.uXmXt W P.k 9 P.P.T GXGXC &.p.y.: +.v.S n.tXvXB.N p.e.% &.v.e.- #.p.&.; t.p.- 6.c.b >X",
"&Xp k Y F * D Y D * F Y 9 0 Y P * H P 7 S.kXBXw D Y q 7 P U z HXGXN V t.*.- M t.M k.G.nXZ.b t.&.& V e.&.& B ;.@.= &.-.; +.e.i >X",
"&Xa D H.U & k H.F - I { 0 t Y I 6 I Y 9 S.lXBXw J H.k 7 I Y G GXZX` +.y.-.1 M ;.B n.tXnXB.i t.&.& V ;.*.- S y.#.- *.t.- +.y.b &X",
">XZ W q.o.c ..O...c O.Y.T R Y.O.v O.Y.` 1XrXxX} O.T.o.` I.Y.h.GXZXq.t.].p.Z 6.].6.M.2X0X1X4.p.i.m 6.v.i.h 8.p.6.d t.i.m 6.i.@.&X",
">X>X>X,X,X3X4X4X7X9X9X9X9X0XaXdXdXgXfXgXhXjXjXjXjXjXjXCXDXFXZXGXDXGXCXZXjXjXjXjXhXhXgXgXfXfXdXdXdXsX9X9X9X9X9X9X3X4X,X,X3X>X>X>X",
">Xa./ ) ( ) ` ) ' ' ' ' ' ' ] ] [ ] ] [ [ 2.2.[ 2.2.2.2.a.a.x.GXGXx.a.2.a.<.2.<.[ [ | ] ] ] ] ] ] ' ' ' ' ) ' ) ` ' / / ) / ] &X",
"&X;     X     X X X           X       X X X X X X   X       , GXHX~   .   X X X X . X X   X X X X X X X     X   X X X   X X # &X",
"&Xm x.{./ V.F.uXm l.@X8.C b.{.m j.@Xj.d l.|.l.y l.@X9.B b.B.$.GXHX7.D.uXbXh J { 9 e { J * x U e 9 J { 7 S.lXwX7 J { e 9 L L k &X",
"&XN |.=X` D.uXAXA b.=Xu.>..X$XB i.=Xz.M {.=Xb.l ].>Xu.E #X$X6.GXGX7.D.cXmXc I Y 9 e { I 6 J H.k 7 { Y w 1XlXwX9 U K.e 9 U Y x &X",
">XC {.|.S S.lXBXA ].#X8.A #X|.d l.*Xu.d b.*Xz.y b.*X6.A |.|.%.GXZX7.D.cXNXa ..X.6 J O.R & W P.u w X.Q 7 D.cXwX9 O.P.k 9 O.X.j &X",
">XC |.=X@.S.lXBX` ].;Xw.$.|.OXB z.;Xz.M ].;X].d ].;Xe.Z #XOX6.GXZX7.G.cXNXh F Y 7 D Y I * F Y e 9 { Y 9 D.cXwX9 I Y u 7 U { k &X",
">XB =X;XA D.lXBXA oX<Xu.$.<X-XM ].iXz.i OX7X[.y |.7Xe.$.<X=X&.GXZX7.G.cXNXd q.U.8 R Q.W & I.E.z 0 ^.U.9 D.cXwXj R.U.z t E.U.j &X",
"&XB OX-X>.D.lXBX` |.<Xu.@.,X:XB |.pX].b |.iX].i |.7Xu.S :X;X8.GXGX| G.cXNXd L.J.t R J.! * ! T.D 9 P.J.9 G.cXwXt Q./.D l Y.L.l &X",
"&XC =X:X@.F.lXBX_ [.<Xu.@.<X:XN z.iXz.M #X7X|.d [.6Xu.S :X:X5.GXGX7.G.uXMXd Y.Q.t D E.! * I./.D 7 Q.U.9 D.lXrX9 Q.`.k u U.E.N &X",
"&XB ;X<X` S.lXBX_ OXiXu.@.<X:XM |.pXv.M #XiX|.i *XiXu.@.<X;X8.GXZX7.G.cXNXd O.U.7 R Q.o.* o.T.G j E.L.9 qXbXwXj `./.G t U.I.u &X",
">XB .X;X@.D.lXBXA |.:Xu.@.,X=XB b.<Xz.M |.<X].b |.;Xu.@.>X=X6.GXZX7.G.cXNXd ..L.7 H L.W & W L.G 9 P.! 9 D.uXrX9 O.P.k 9 L.Q l =X",
"&XB |.=XA D.lXBXA {.:Xw.@.$X=XC z.;Xz.M [.;X].i {.,Xu.S =X=X*.GXGX7.D.cXNXd W P.7 L P.W * W P.D 9 L.P.9 D.bXrX9 O.P.k 0 L.L.j &X",
">XC {.|.S S.uXBXA z.*X6.S |.|.M l..Xl.d ].$Xz.d v.*X8.S |.|.%.GXZX7.F.bXNXx J U 6 e Y F * F U e 9 U U 9 D.cXwX9 I Y e 7 I P j &X",
"&XB }.=X@.D.lXBX_ ].>Xu.@.#X=XB l.;Xx.M ].;X].i b.,Xu.S #X#X6.HXZX7.G.lXNXd I Y 7 e H.I * F X.k 9 I Y 9 D.cXwX9 U K.k 7 Y Y j &X",
"&X` |.$X4.A.rXxX4._.=Xu.6.$X$XE (.-X(.S {.,X{.S [.-Xu.8.$X=X0.GXZXw.B.1XwXC L W e v ..} w K ..z x L L a M.A.N.a L ..j a L R c >X",
"&X>X>X,X3X3X,X9X9X9X9X9X9XsXsXdXdXgXdXhXhXhXhXVXjXCXZXCXGXFXHXGXGXZXZXCXjXVXVXhXgXVXhXgXdXdXdX0XaX0X0X0X4X9X9X4X,X,X3X3X3X>X>X&X",
"&Xs.3.<.<.] 1.1.2.2.2.2.a.s.2.2.9.s.s.s.d.g.k.3.d.j.d.j.k.j.b.ZXZXx.] ] ] 2.<.[ <.2.] ] 2.] ' ' ] 2.] <.<.<.] ] ' ' ' ' ] ] a.&X",
"&X> X X               X X   . .     X   X X X .     X X X   2 GXZXg X X .     X X .   X       . X X   X   X           X     # &X",
"&X3 :.~ # ( 1.~ + _ 1.% 2 ,.:.@ V.eXvXG.2 ,.~ :.G.uXD.% <.<.d ZXGX0.@X%X5. .$X$Xz (.%X .C.G.bX7.(.%Xx.z ).%X(.i _.%Xw.E $X$XE &X",
"&Xp ,.n # _ 1.n @ :.9.> 2 ,.,.@ S.kXNXtX2 1.n ) G.bXG.% ,.:.s ZXGX0. X5X5.5.%X%XT }.5X=.B.uXMXd._.5X!.T  X5X).N }.5Xw.%.%X%X4.&X",
"&X3 r.( # 1.r.n + 1.r.% 4 k.>.# S.tXNXqX4 r.m ) uXcXD.3 k.1.4 GXGX0.XXXXE %.5XXXu [.5XE A.tXMX7.(.-X!.i  X-X'.u  X-Xq.E %XXXT >X",
"&X3 >.n # :.1.g O _ 1.> 2 ,.@.# S.uXNXeX2 1.m 3.G.vXF.; ,.:.s ZXGX0. X5X5.5.%XXXT [.5XE A.tXMXs.).5X!.N  X5X`.N ).:X0.5.%XXX .>X",
">Xs l.,.< j.l._ # j.l.3 n b.k.# S.uXMXeXn x.:.) qXbXG.4 b.j.g GXGX0.5X5X%.5.8X-XN XX7XE A.tXmX7. X8X).N OX7X[.i %X8X0.%.8X-XE &X",
"&X3 l._ % >.l.n # r.i.1 2 i.9.# S.lXMXwXn p.>.) eXnXD.< b.p.s GXGX0.5XpX5.0.6X+XT XX6X5.A.uXmXd. XfX).N XX8X Xu OX6X0.5.6X5X$.&X",
"&Xp l.:.# l.b.:.@ 6.l.< < l.r.# S.uXMXeX3 p.A ) G.nXqX; l.8.s GXGX0.-X8X5.=.6X5XN XXpX=.Z.tXNXd.).pX!.N XXfXXXG XX8X0.5.8X8XE %X",
"&Xs j.@.> r.l.A # j.l.< 4 b.r.# S.uXMXeXg b.:.) G.bX2X4 @Xl.s GXGX0.5X6X%.q.pXOXN XX6X%.Z.yXmX7.XXfX!.N +X8X[.i XXsX0.%.8X6XE &X",
"&Xp k.>.> 9.r.m @ 8.j.2 4 j.9.# S.tXMXeX4 j.:.) eXbXD.3 j.r.4 GXGX0.-X6X5.q.7X-XT XX6X=.Z.uXmXa. X8X).N XX8X Xi XX7X0.%.7X5X .&X",
"&X4 2.A % 1.r.m @ ,.s.2 2 r.1.# S.uXMXeX2 r.( ) G.bXG.2 1.1.g GXGX0.%X5X5.5.5X-XT  X5X%.Z.yXmXd.).6X).N XX8X}.N XX8Xw.5.,X-XE >X",
"&X3 :.n # :.:.4 + _ ,.% 2 >.:.# S.uXBXeX2 1.n ) qXnXqX% :.>.p GXGX0.`.-X5.5.XXXXN !.OX=.A.uXmXd.!.%X!.z }.OX!.z ).OX0.E XXXXE &X",
">X3 ,./ # :.1.n O _ 1.< 2 >.:.# S.uXBXrX< 1.n ) eXnX2X; ,.>.s GXGX0.$X5X7.5.%X%XT ).5X%.A.tXmXh.).5X(.N  X5X).z  X7Xh. .OX%X .&X",
"&Xm 4.` 4 ,.r.( 2 <.s.g g s.1.4 N.F.rXA.n s.:.3.D.2XA.b s.8.` GXGX!. XXXq.w. X XE ).$X7.N.2XwXd.!.%X!.E _.$X_.N ).$Xw.5.}. X5.&X",
"&X&X&X3X,X,X,X<X7X7X9X9X9XsXsXdXdXgXdXhXhXhXjXVXjXjXZXCXFXGXGXGXGXGXCXCXCXCXCXjXjXhXhXgXgXfXfX0X0X0X9X9X9X7X9X3X7X,X,X,X>X&X>X&X",
"&Xa.' ' ' ' [ [ [ [ [ 2.2.2.<.2.2.2.2.f.f.2.a.a.s.g.g.g.f.g.M.ZXZX@Xf.f.g.s.a.s.d.f.f.f.a.a.2.2.2.2.2.[ 2.[ [ [ ] ' [ ' ) [ [ &X",
">X> X X             X X       X     X X X       X X     X   3 GXZXg         X X   X X X   X X X X X   X X X   X     X X X X # &X",
"&X, 4 c ; n.D.uXuX% f f 4 S.eXZ.; x f o p c f + a c : # x f p HXZX] V.D.wXp k K * w J e & x H 9 [ V.G.wX6 z K 6 m.D.F.8 J J d &X",
"&X2 h ^ , n.G.nXMX; x x 5 qXbXG.; c x o p ^ x o p ^ : % c c s GXGX7.G.cXNXc I Y 6 r Y I 6 F H.q f.qXbXNX7 I Y 0 C.uXyX9 I { k &X",
"&X3 C } ; m.qXnXMX; } c 5 G.nXqX3 } v o h } c o c } 3 ; ` Z p GXGX7.G.lXNXc L Y * k X.I & F { u f.qXcXAX7 I Y 9 C.uXzX9 U U l &X",
"&X2 a v : m.eXnXMX; c d 5 G.bXqX; c l @ a v l @ p ^ 1 % c z s GXGX7.G.cXSXl F Y 7 r Y F * F H.k f.G.bXAX7 P Y 0 C.cXzX9 U Y j &X",
"&X2 7.q.3 m.eXnXNX3 w.E ~ G.bXqXd u.E + @.w.E + 4.w.y 1 w.5.s GXZX7.G.lXNXc h.U.7 R Q.! & I.U.G f.G.cXAXa R.U.u C.uXzX9 E.U.l &X",
">X4 | 7.s m.eXvXmX1 5.| ~ qXbXqX3 _.7.@ h h.Z o | 7.g ; 7.| p GXZX7.G.cXNXc ^.~.7 L L.! * X.U.D f.uXcXSX7 ! J.u C.uXzXj L.J.l &X",
"&X2 ` 7.1 m.tXnXBX- 7.} 5 G.bXqX; w.Z + Z q. .+ C q.3 & 7.7.p GXZX7.G.uXMXc Y.Q.7 F E.O.* L./.D g.G.cXSX7 Y.W.u C.uXzXj T.E.z &X",
"&X4  .q.3 m.qXnXBX< w.` ~ eXbXqXs _.7.+ ` q.4.+ ` h.s 1 7. .s GXZX7.G.cXMXl ^./.: G Q.! : ..L.D f.G.bXSX9 O.I.0 C.uXzXj Y.L.l &X",
"&X3 Z  .1 m.tXbXMX< E ^ ~ qXbXqX3  .Z + c  .Z + C  .p ; | T s GXGX .G.cXMXc O.U.6 R U.! = ! L.D f.uXbXAX9 I.L.0 C.uXzX9 L.L.j &X",
"&X3 c } : m.tXnXMX; } z ~ qXbXqX1 } c + h } c + c T 3 ; ` Z s GXZX6.G.cXNXc U Y 6 D X.P * F J.r f.G.cXBX8 U H.0 C.uXzX8 Y Q j &X",
"&X2 a v : m.eXnXNX% c d ~ qXbXqX; v c o p v l o f v , % c c p GXGX7.G.cXNXc F U - k Y I * L U q f.eXcXSX8 H U 9 C.uXzX9 U U j &X",
">X3 h ^ , m.G.nXMX% v c 5 qXbXqX; v x + p v x o a v : % c z s GXZX7.D.bXAXj I Y 6 r Y L * F { e f.G.vXAX7 I K.0 C.uXbX9 Y Y j &X",
"&Xg c ` 3 g.1XrXyXp ^ C / A.wX1Xp ` v ; c ` v < c } h p ^ ` C GXGXw.1XrXxXZ W X.w K X.W 9 L O.K g.1XrXxXa U X.j N.2XrXt { ..N &X",
"&X>X,X>X3X3X3X3X9X7X9X9X9XaXdXsXdXdXdXgXhXjXVXVXhXCXZXVXZXZXZXHXGXGXZXCXCXVXVXCXVXhXhXVXdXgXdX0XdXaXaX9X9X9X4X9X3X,X>X3X3X3X&X&X"
};
