/* XPM */
static char *_86f598bfc99458296e5c1e7188e39d6IeoAiiywuiyhyvcB[] = {
/* columns rows colors chars-per-pixel */
"64 64 206 2 ",
"   c #661D0C",
".  c #6D1E0C",
"X  c #741E0C",
"o  c #7B1F0F",
"O  c #731F13",
"+  c #5B331E",
"@  c #57391F",
"#  c #6E230E",
"$  c #74230E",
"%  c #78230F",
"&  c #662712",
"*  c #6E2413",
"=  c #662914",
"-  c #6C2A15",
";  c #6B2D18",
":  c #752514",
">  c #7B2515",
",  c #742916",
"<  c #7B2A16",
"1  c #752619",
"2  c #7C2619",
"3  c #752B1A",
"4  c #7C2C1B",
"5  c #63341E",
"6  c #6C351C",
"7  c #633B1E",
"8  c #69391D",
"9  c #763318",
"0  c #74331D",
"q  c #7D311D",
"w  c #5D3522",
"e  c #5D3A22",
"r  c #712F20",
"t  c #7D2E21",
"y  c #643522",
"u  c #6A3624",
"i  c #653B24",
"p  c #6B3B25",
"a  c #6C3728",
"s  c #663C29",
"d  c #6C3D2A",
"f  c #753422",
"g  c #7D3221",
"h  c #713C25",
"j  c #7D3A24",
"k  c #723D2A",
"l  c #5E4528",
"z  c #654125",
"x  c #6B4126",
"c  c #654229",
"v  c #6B422B",
"b  c #6E4C2E",
"n  c #7E4026",
"m  c #73432B",
"M  c #7A432D",
"N  c #764A2A",
"B  c #7D4B2D",
"V  c #6D4734",
"C  c #744631",
"Z  c #7C4532",
"A  c #754933",
"S  c #7E4C35",
"D  c #7E4E3B",
"F  c #795236",
"G  c #7D533B",
"H  c #822515",
"J  c #892616",
"K  c #822A16",
"L  c #882A16",
"P  c #82261C",
"I  c #8B271B",
"U  c #832C1C",
"Y  c #8A2D1C",
"T  c #922B1C",
"R  c #83321E",
"E  c #8A311E",
"W  c #81391D",
"Q  c #91321E",
"!  c #812721",
"~  c #832E21",
"^  c #8A2E22",
"/  c #932E23",
"(  c #992A23",
")  c #843322",
"_  c #8B3323",
"`  c #853925",
"'  c #8B3925",
"]  c #843629",
"[  c #8B3629",
"{  c #853A2A",
"}  c #8B3A2A",
"|  c #923424",
" . c #993524",
".. c #923A26",
"X. c #9A3827",
"o. c #93352A",
"O. c #993628",
"+. c #933B2B",
"@. c #9C3C2A",
"#. c #953F30",
"$. c #87412E",
"%. c #8C442C",
"&. c #82492F",
"*. c #8B492D",
"=. c #95432D",
"-. c #904C2F",
";. c #824531",
":. c #8C4634",
">. c #864A34",
",. c #8D4C34",
"<. c #834D3B",
"1. c #8C4D39",
"2. c #934533",
"3. c #9C4334",
"4. c #934D35",
"5. c #994D36",
"6. c #944D3A",
"7. c #9A4D3B",
"8. c #8C5236",
"9. c #8D533D",
"0. c #88583F",
"q. c #955136",
"w. c #9B5137",
"e. c #94533B",
"r. c #9B533C",
"t. c #96583C",
"y. c #9B593D",
"u. c #A44C3D",
"i. c #A2543D",
"p. c #A4593D",
"a. c #984F40",
"s. c #815640",
"d. c #8B5440",
"f. c #855B43",
"g. c #8D5C43",
"h. c #945541",
"j. c #9C5442",
"k. c #955B42",
"l. c #9B5A43",
"z. c #9E5F49",
"x. c #A35644",
"c. c #A35B44",
"v. c #AB5B45",
"b. c #A35648",
"n. c #A35C49",
"m. c #B05F4E",
"M. c #896648",
"N. c #8A6B4E",
"B. c #946346",
"V. c #9C6146",
"C. c #93654C",
"Z. c #9D624A",
"A. c #956C4E",
"S. c #9C6A4D",
"D. c #916751",
"F. c #956D53",
"G. c #9D6C51",
"H. c #9D7253",
"J. c #97765B",
"K. c #A56246",
"L. c #A3624B",
"P. c #AA634C",
"I. c #A36C4E",
"U. c #A9694D",
"Y. c #A66650",
"T. c #A56C53",
"R. c #AB6B54",
"E. c #AC6F58",
"W. c #B46C57",
"Q. c #B16F59",
"!. c #A57153",
"~. c #AB7057",
"^. c #AB7856",
"/. c #A2765A",
"(. c #AD735B",
"). c #A17D5E",
"_. c #AB795C",
"`. c #B5745C",
"'. c #B47A5D",
"]. c #A87760",
"[. c #A47B61",
"{. c #AD7D63",
"}. c #BA7061",
"|. c #BA7D65",
" X c #B67E6C",
".X c #C07F69",
"XX c #A58162",
"oX c #AC8466",
"OX c #A5876D",
"+X c #AC856A",
"@X c #A48D6E",
"#X c #AD8D6E",
"$X c #B28266",
"%X c #B98263",
"&X c #B3856A",
"*X c #BB836C",
"=X c #B38A6D",
"-X c #BB8A6C",
";X c #A8946E",
":X c #B2906E",
">X c #AD8E72",
",X c #BC8371",
"<X c #B38E74",
"1X c #BC8D73",
"2X c #AE9272",
"3X c #B69576",
/* pixels */
"_.e.e.e.y.r.y.,.q.l.e.e.,.6.l.h.h.l.r.h.W.=XL.e.;.6.e.e.e.k.;.l.l.>.h.9.,.e.6.y.r.n.&XA.u.h.K.V.*.c.r.y.e.4.q.e.x.8.8.4.y.4.p.'.",
"N , < W 9 , 4 W q ) 4 * 4 q 4 , 4 4 g 3 4 oXg X U _ U 1 2 4 K 2 | _ U 4 2 [ U , , U R.= / K L ' ..E U R Y _ K U E E q E K L L x.",
"x ) ) < R 4 4 4 q 1 2 > ` > , > > , : * } &Xg ] 4 q ` , , 4 q 1 2 > , U P L ) 1 4 $ Q.6 Y g ` # 4 R ) U R , < U < ` W R ) U R y.",
"u 1 1 9 4 q , q , ` U 4 ~ X 4 1 ) 4 _ 4 R %X4 q g 4 , 1 , ` 4 q , U 2 g ) ) [ [ , 4 R.8 [ ` ) 1 4 ) 2 , q ) 4 _ R q R ' > 4 , 4.",
"m ) q 3 q , , * U , 4 ` $ q _ 2 ) 4 U g 2.+X4 ^ > _ > U L Y Y _ o.H L ) < 4 } > R ^ W.- _ 2 ~ ~ 4 K _ ^ ~ P ~ P > ) E 2 K _ > 7.",
"x * 0 3 3 = f 0 , 0 f 3 { 0 { 3 3 - ) 1 } {.4 t ` ) q g g t { * , ) t t , ) * q * ` (.6 , 4 4 q q 4 g , q ) , , 4 j 1 , { : =.i.",
"M t ) 1 4 1 3 3 1 ! 4 ) 2 t ) ~ 2 t j j ) oXg 2 [ 4 ! U 4 ~ ~ 2 ~ ] O [ 2 ~ ~ ~ 1 _ }.* } ..} _ [ ! ~ [ ) 1 ~ > ) [ K 2 [ 2 P 7.",
"XXv e z d p x d c s i d i x d m k h y d h.2XS x + d s p d d d p d d x i d d x s x F OXM.s b v c i v m A p p m d x p x p d d b [.",
"e.c.4.e.x.y.6.!.:Xl.,.,.c.e.&.9.e.y.>.1.:.G 6.$.6.6.r.>.I.1XV.6.4.:.4.6.r.e.1.y.>.t.r.4.x.*.t.$.,.Z.&XC.l.e.y.>.e.e.e.c.e.,.q.V.",
"9 4 q , K ' < %.C.q ] 1 : 4 U q g 1 4 3 ) 4 * 4 4 4 t , ` oX2 ) , , ) ) 4 ) U 1 R E E U U _ < 1 , U $X- 4 2 [ 1 g 4 2 > 4 { ) 1 ",
"4 q ) 4 : 4 < =.F.f 4 4 : 1 4 3 t * 3 ~ 1 1 { ) 1 1 1 : ~ oX! 4 U 4 2 : [ 4 q ` 4 K R E % U ` 4 U U oX& 4 t 1 ) ) 2 , 1 q 1 ) , ",
"` 1 ) ) 4 4 R 2.C.g g ] 4 g t g t 4 t g g 3 * : g 4 ~ t 3 oXU 2 o [ U ..) ) , 4 4 < < R U _ ) q q 2 {.0 ) 4 g R g 4 q , q 4 ` $ ",
"~ [ 2 4 , 4 E } F.t 1 1 1 q 3 , g ) } 4 t * t O ) 1 1 4 t [.[ ~ 2 t ) U ) 1 4 4 ) R R E ' ' R ) , 2 1X= 3 t : ) # 4 4 g 4 , 1 R ",
"U U R 4 ) R 4 ) F.r g g { g r - 1 4 4 3 3 j 3 3 1 ) ) g 3  X) ) : q 4 , 4 R R _ W R _ < < U ) 4 $ < {.6 ) : 2 1 U ` R ) ` 1 ) q ",
"1 ) 4 ) : [ ! { T.1 g t { t 1 g t : , 1 t t t r ; 3 * r h {.= , g { 3 , > ` ~ Y R 4 ) g 4 : ~ ` ) ~ *Xr 1 t t ~ | , ) U 4 ) : U ",
"d x x s i p d F.@XD d s s s d e x m d x d b i d d v v m G 3XF m d v V d x c s a m d A s s 5 p d d S <Xs.d i d a C s s z x x i i ",
"6.1.1.1.6.1.n.1.h.4.*.q.8.-.y.^.!.q.5.6.e.c.t.7.%.q.q.5.6.r.t.r.6.r.4.y.q.-XS.x.4.i.r.t.r.K.4.5.5.L.r.w.w.c.K.w.q.q.'./.h.6.a.;.",
"2 U < R U 4 4 2 | 1 4 < > U U t.;., ) U ^ U U U , U > , U U < ) 2 , 4 R U Q.9 _  .Y Y L E L L J @.Y R @. .| Q K % T v.e.q > 4 K ",
"4 4 4 U 2 ` 1 , ) 4 3 ) q 4 : 1.h ) g ) } 1 ) 4 ) g ] 4 4 q ) 4 < R R ' q ~.g ..E K .. .E U | < R W K | Y R K } E E i.0.t 4 3 ) ",
"' [ < R R q ) 1 R 3 : 2 U R K 1.M 4 ~ 1 ) ` 4 q ' : 4 4 ) 4 ) ] ' _ < q < ~.0 |  .=.Y  .L L L _ E % | K U L _ } | E v.B.1 U , R ",
"> 2 , R 4 : 1 2 R 4 3 , R ) Y >.h ] 2 K > , [ U ) U 4 4 : 1 2 : 4 U , q U T.3 U Q ' ..K L 2 R ..E U E L ' > _ ~ K K v.g.t 2 g U ",
"4 : U 2 , ` ) ) 3 q q ) ) 1 U 1.u ~ ` : ) _ : [ ! ) U 4 q ` 1 q } : ) 4 4 T.= Y Q L E R E ..K < E | R E H Q L } Y K v.d.1 ~ ) 4 ",
") ) R t 4 g U ~ 4 3 4 4 U 4 K z.k 2 2 } ) _ U U ` _ 4 4 4 1 g t 3 ) 3 * ) `.  ^ +.U R q U R 2 ' K ' U E @._ K ) ^ U i.d., U g q ",
"d u z i i c i b s 5 s v i d x [.[.k s V v z i d l u c i b m x e s x z z b >XN.b x v v h m s M k p 8 v z b c i z k m J.OXA h u i ",
"9.e.=XC.:.r.7.5.7.7.t.l.y.e.t.1.e.c.r.r.2.y.j.R.&Xm.t.v.e.r.2.x.7.r.e.r.u.i.p.5.4.4.z.j.'.-X<.e.1.k.l.n.{ l.l.>.1.h.>.&.9.k.h.1.",
") : .X   .U Y .... .@.X.L X.I T T Y E 2 _ _ E %.H.` < 2 < R , U < W > R E R E : : Y I Y ' 1.g 2 2 U [ 4 3 , ) U 4 K P Y ..o K _ ",
"1 0 &Xq L | Y U % ....< # , ' ' } > Y Q @.Y _ O.S.! , ^ 2 2 ~ ^ L ~ > ..R < U U _ 4 q L y.<.- , U : _ K U } 4 R g 9 ) [ g q 3 1 ",
"> R %X< Y E R R > 4 U , 4 , | E U L H _ Y _ Y 3.T.U 3 _ [ [ U : ~ ` +.U ) _ _ 2 [ ^ P L 4.<.] ) 2 , U ) 4 ~ 4 ) 1 { U U ) , q g ",
"9 ) &X, 4 K < _ ' L  .| L Y U E U E R K < R ) =.S.{ , ~ { [ : +.) _ ) ~ R q R ' ' K 4 E :.D r 1 9 # : q ) < q q , q , } q 4 , 4 ",
"1 _ &X4 K E Y J L } ) 4 R U Y H E Y Y _ K K K ..S.E g U Y L U _ E ^ U P K U ' _ U 2 ' +.%.1.t 2 _ _ _ E K ~ , _ 4 9 < 2 K [ U < ",
"{ ) *Xg 4 4 ` ) [ / ^ O.o.| 2 ~ K ~ 2 4 1 ) , ) G.) t 2 t ) 1 ~ g 2 [ ] ~ ] ] , { t t Y t.9.f t ) t q 3 t t * ] * ) g ) 4 3 ) { ",
"d M @Xg.i d u k u i p x d d u k k a a h k M u z.@Xk d d v d d i a i a d d 5 a u a y s h /.OXs s d i d d V y p y u y k y a p d p ",
"e.y.,.y.q.q.r.x.7.6.oX_.l.c.V.y.q.,.k.l.e.1.t.t.q.8.t.r.8.t.y.$X].x.q.p.v.i.5.y.6.w.i.5.i.y.q.t.y.l.v.U.P.2Xc.q.x.K.r.w.p.v.x.e.",
"E L L H U K < L ..K R.3 4 , E % R ) L P ~ Y U ..R R ....E < L l.f _ H L T T ( Y J L Y Y T Y Y H H H L | | T._  .L > L Y Y J J E ",
"| U L E | < K 4 U Y V.; 0 * q W $ 9 4 ` 1 2 K _ q , } % q W _ U.5 E Y K E E % > U ..Y | L E L E U L E K @.C.^ ~ R U > ' U _ ) ' ",
"> K E U ..L L U : 2 T.- 3 4 R < $ R < g q } 9 < 9 9 R R 9 ' $ I.0 Y Q K L I T Y Q R H % _ U R _ L K Y R 3.G...4 2 1 R H H J J Q ",
"L Q E L | P ^ Y 2  .L.3 U Y Y R U E ) U 4 _ > E K E K R R : R K.; ( L , Y L _ H U _ _ Y Y _ Y ^ | _ L K u.S.U ) 2 U ! ..% _ Y > ",
"R q R W . 4 : ) R _ S.6 g 3 : 3 * 0 9 , q R R % R < % R ) 4   U.u ^ 1 1 U W R E K @.Q  .Q H 4 2 < U E 4 2.G.4 ] 4 q 4 : ) R ` _ ",
"/ H | P o.o.^ ! P ~ n.f ) ~ 1 1 ~ U E R U U ~ 2 U U R E > L ~ m.f ^ ^ I ~ U K ^ ^ U ~ P L | | / Y / | L +.T.~ o.Y P P ! 2 ~ o.t ",
"u x p y d y d y d k XXA.p z w s d 5 s s p y a e e i x z 7 7 b XXN.d i + y a d d d y a a d k d y p d i z C.;XC y i w w y p s i a ",
"e.L.1.,.y.i.w.5.7.2.V.e.5.e.5.5.l.L.-XB.e.r.c.5.x.r.r.4.l.h.a.h.r.6.7.l.l.r.q.%XI.5.w.v.p.=.r.p.v.w.5.7.7.9.3.x.x.5.i.r.~.-Xl.c.",
"q q R ~ ) , , ) ) _ K ) K _ } 9 , U $X  t ) 2 : 1 4 ) _ 2 _ , * 2 3 t ] _ 2 R g.8 K L U U K K < ) U Y > K U 2 ) ) K ) _ 5.G.R 4 ",
"2 } _ , 2 U _ [ U 4 ~ U U U : 1 2 2 1Xr 2 ) 3 4 ) ] 1 ! ! 3 : 1 1 ) t 3 R q ~ T.0 U ..R U E ) > U ~ ~ 2 > U K > _ U o.> ..G.1 4 ",
"_ Y ~ 2 > 2 _ : ~ _ _ ~ 2 2 2 ` > K &X& U 1 t ~ * 4 ) ` 2 g : ] 3 t 1 ) 1 , ~ E.0 Y .._ 2 +.2.~ 2 _ U ~ U > U ^ P 2 _ X } S.) ] ",
"P ' t g q 4 4 4 4 U ~ > ~ U U [ 2 P <X3 2 4 2 1 ) 4 , 1 4 2 { 1 2 { 1 2 3 t t L.n L E Y < _ R K : U ! [ U > 2 < : ' U R } S.U 3 ",
"U 1 { , < , W $ q _ X U ) K q 4 R _ &Xf t r g 1 ] 1 t 4 { , 1 1 1 ] 3 : 1 1 , Z.6 _ E : < > ) R L U 2 R ~ K _ < R < U 2 %.A., q ",
"4 3 t 2 ] 2 2 ^ 2 [ #.) ~ U 3 > U > *X* 2 1 1 _ ) U P 2 U 2 3 2 ~ ) 4 [ U 2 g n.3 ~ ) 4 4 U 4 2 I | E U [ _ ) U K ~ ~ Y 2.T., 2 ",
"d w s w i w w y d i w w w i w y y C #Xs.p y s i p w i s i s i w 5 y s i i i s [.F.s w w + d i c p d i y y y i i i d w m M.#XC i ",
"a.7.j.7.Y.&Xl.e.c.b.b.j.j.6.k.l.j.j.h.L.6.4.r.x.c.V.-XL.b.b.j.n.h.6.l.5.j.h.e.1.9.7.a.x.b.7.l.`.{.4.c.7.7.x.x.v.x.i.p.e.e.2.l.r.",
"R < U 2 %.|.0 , > < R 4 ) X t t : K ^ U U O E E K W '.# R < K L X U L _ +.: U L _ 3 U ) > R U %.B ' K ) _ U U _ K $ R R R | R , ",
"4 R < _ U XX3 ) R U 2 U 2 ) > U 2 U 4 R > U 1 4 U g ,X) 4 1 4 _ : ^ K 1 4 4 ) U Y ^ P _ > U < 6.B ) [ 2 , ) U ~ R 2 U [ , q , q ",
": < 4 2 [ oX: R U 4 > { ) U ~ 4 , [ > R [ 4 , 4 ) q ,X] K 4 P ~ ~ 4 _ , ) : U _ ~ 2 _ ) U _ } 4.M ) > : 2 ) ~ ) ) ) [ E , * 4 > ",
"` 2 3 2 @.).t q U ~ ) 2 ) > 4 ` 2 4 < ) 4 4 : 4 R 4 ,X, t O U ~ g ' K 1 > 2 U [ 2 ` 2 U U U R 2.N _ 4 ) U [ [ ` R 4 1 U R , , ) ",
"U : ) U ..XX1 , _ > R ~ > 2 2 ) 1 ) U 2 2 R 2 ) R , ,Xg _ Y ~ ) : 2 U ) O P ) ) U ) 4 O [ _ : y.N ! ) ~ 1 ) U ` 4 4 4 ) g ) ) R ",
"1 ) : [ ' oXt 4 [ 4 ~ ) ~ ) g g t 4 _ , [ 4 4 t : 4 ,X; t ~ ! 4 t ` ~ t ) [ _ ~ U ) 1 { [ ~ g 5.Z ~ 4 2 t ) 4 ` 3 4 ) 4 4 4 U 2 ",
"p p w a f.<Xs.y y i u 5 i 5 i y y 5 e @ z @ e y 5 G 2XV i p i y d s u 5 + e e i e 5 5 u 5 + s /.[.x i y w 5 5 x x c 6 5 y x d + ",
"4.h.j.e.j.i.c.e.y.5.r.P.`.^.l.7.x.r.7.7.r.n.r.y.x.q.e.e.l.1.e.t.5.Y.-XS.x.w.w.i.x.q.q.y.x.y.l.5.r.t.r.e.l.6.c.R. Xl.y.7.h.6.7.e.",
"_ L K ^ > L Y K < J , L y.N U U _ U 4 3 g , R 2 R R R q R : > U R 2 ~.- ' , 9 < q < R K ..L _ E Y U ^ _ R < L 6.k.U U 2 U 2 ~ ) ",
") U [ > _ : ) q 4 o.g ^ x.z 3 : 4 4 2 K 2 ^ U R 0 9 2 ) q . q 4 , 1 /.- ^ 2 L U _ ^ U $ ) 1 U 4 1 ) U 4 , 2 ^ %.f.) R 9 , < ) ) ",
"^ [ _ 2 2 K P ~ ^ P 4 ^ 7.u 2 ) 1 ) _ R ) U 2 _ U U [ 2 U _ P U 4 ` E.2 > 2 #.~ _ / H E L _ _ | | _ ~ Y _ _ Y =.g.~ U H +.^ ! L ",
"U ) > , , [ K R , 4 1 2 e.N ) U g 4 ) ` 4 ' q ) 2 %., 4 1 } U R _ R _., R 2 R 4 ) _ E R R < R } R q : R U R W ..G { [ _ U < R ' ",
"_ 2 E E I O.^ Y K |  ./ q.N o Y 2 | E 2 R 2 _ U 2 E _ K _ U U U Y E U.9 _ _ _ E L _ E K ' R R U < K K E 2 L E @.g.~ P Y _ Y R : ",
"1 4 ~ ) } t U t 4 _ t _ h.S ) [ - t 3 4 1 ` 1 1 t t ) ` ` ~ t { U ) ].= ) ) ) ) ~ t ` 4 q 1 ~ ) ` t } ' 1 ) t 3.D.r ] ] t ] 3 t ",
"k d a d u a y h a u 5 M [.J.x a i d k d k d p p a y i y k a u p 5 C >XD.k u a d k d u d x d u h u h 8 d p u d G.@XC a a a d i y "
};
