/* XPM */
static char *_c89345c992347ff82d2ba87862d51bcAshDp3apRMgZQI0L[] = {
/* columns rows colors chars-per-pixel */
"55 75 4 1 ",
"  c None",
". c black",
"X c #B9BACA",
"o c #CECFE0",
/* pixels */
"                                                       ",
"                                                       ",
"                                                       ",
"                                                       ",
"                          XXX      ooo                 ",
"                         XXXXX    ooooo                ",
"                         XXXXXX   oooooo               ",
"                         XXXXXX   oooooo               ",
"                         XXXXXXX   oooooo              ",
"                         XXXXXXX   oooooo              ",
"                          XXXXXXX  ooooooo             ",
"                          XXXXXXX   oooooo             ",
"                           XXXXXX   oooooo             ",
"                            XXXXXX  oooooo             ",
"                            XXXXXX  ooooooo            ",
"                             XXXXX  ooooooo            ",
"                             XXXXXX  oooooo            ",
"                              XXXXX  oooooo            ",
"                              XXXXX  oooooo            ",
"                              XXXXX   ooooo            ",
"                               XXXXX  ooooo            ",
"                               XXXXX  ooooo            ",
"                               XXXXX  ooooo            ",
"                               XXXXX  ooooo            ",
"                               XXoooooooooo            ",
"                               oooooooooooo            ",
"                              ooooooooooooo            ",
"                             oooooooooooooo            ",
"                            ooooooooooooooo            ",
"                           oooooooooooooooo            ",
"                          ooooooooooooooooo            ",
"                         oooooo.ooooooooooo            ",
"                         oooooo.ooooooooooo            ",
"                        ooooooo.ooooooooooo            ",
"                        oooooooooooooooooo             ",
"                        oooooooooooooooooo             ",
"                        oooooooooooooooooX             ",
"                        ooooooooooooooooXX             ",
"                          ooooooooooooXXXX             ",
"                            oooooooXXXXXXo             ",
"                              XXXXXXXXXXoo             ",
"                               XXXXXXXXooo             ",
"                              XXXXXXXoooooo            ",
"                              ooXXXoooooooo            ",
"                             oooooooooooooo            ",
"                             oooooooooooooo            ",
"                             ooooooooooooooo           ",
"                            oooooooooooooooo           ",
"                            oooXooXooooooooo           ",
"                            oooXooXoooooooooo          ",
"                           ooooXooXoooooooooo          ",
"                           ooooXooXooooooooooo         ",
"                           ooooXooXooooXoooooo         ",
"                           ooooXooXooooXoooooo         ",
"                           ooooXooXooooXooooooo        ",
"                            oooXooXooooXooooooo        ",
"                            XooXoooXooXoooooooo        ",
"                            oXXoooooXXoooooooooo       ",
"                            oooooooooooooooooooo       ",
"                           ooooooooooooooooooooo       ",
"                           ooooooooooooooooooooo       ",
"                           ooooooooooooooooooooo       ",
"                           ooooooooooooooooooooo       ",
"                           ooooooooooooooooooooo       ",
"                           oooooooooooooooooooo        ",
"                           oooooooooooooooooooo        ",
"                          XXoooooooooooXXXoooo         ",
"                        XXXXXoooooooooXXXXXoo          ",
"                       XXXXXXXoooooooXXXXXXX           ",
"                                                       ",
"                                                       ",
"                                                       ",
"                                                       ",
"                                                       ",
"                                                       "
};
