/* XPM */
static char *_84da8775cd9451ac7f4674e0ff9cdb1DrPJ5Tf6J2gFDamA[] = {
/* columns rows colors chars-per-pixel */
"55 80 4 1 ",
"  c None",
". c black",
"X c #B9BACA",
"o c #CECFE0",
/* pixels */
"                                                       ",
"                                                       ",
"                                                       ",
"                                                       ",
"                                                       ",
"                                                       ",
"                                                       ",
"                                                       ",
"                                                       ",
"                         XXXX      ooo                 ",
"                        XXXXXX    ooooo                ",
"                        XXXXXX    oooooo               ",
"                        XXXXXXX   oooooo               ",
"                        XXXXXXX    oooooo              ",
"                        XXXXXXXX   oooooo              ",
"                         XXXXXXX   ooooooo             ",
"                         XXXXXXXX   oooooo             ",
"                          XXXXXXX   oooooo             ",
"                          XXXXXXXX  oooooo             ",
"                          XXXXXXXX  ooooooo            ",
"                           XXXXXXX  ooooooo            ",
"                            XXXXXX   oooooo            ",
"                            XXXXXX   oooooo            ",
"                             XXXXX   oooooo            ",
"                             XXXXXX   ooooo            ",
"                             XXXXXX   ooooo            ",
"                             XXXXXX   ooooo            ",
"                              XXXXX   ooooo            ",
"                              XXXXX   ooooo            ",
"                              XXXoooooooooo            ",
"                              Xoooooooooooo            ",
"                              ooooooooooooo            ",
"                             oooooooooooooo            ",
"                             oooooooooooooo            ",
"                            ooooooooooooooo            ",
"                           .ooooooooooooooo            ",
"                           .ooooo.ooooooooo            ",
"                          o.ooooo.ooooooooo            ",
"                          ooooooo.ooooooooo            ",
"                         ooooooooooooooooo             ",
"                         ooooooooooooooooo             ",
"                         ooooooooooooooooX             ",
"                         oooooooooooooooXX             ",
"                          ooooooooooooXXXX             ",
"                            oooooooXXXXXXo             ",
"                              XXXXXXXXXXoo             ",
"                               XXXXXXXXooo             ",
"                              XXXXXXXoooooo            ",
"                              ooXXXoooooooo            ",
"                             oooooooooooooo            ",
"                             oooooooooooooo            ",
"                             ooooooooooooooo           ",
"                            oooooooooooooooo           ",
"                            oooXooXooooooooo           ",
"                            oooXooXoooooooooo          ",
"                           ooooXooXoooooooooo          ",
"                           ooooXooXooooooooooo         ",
"                           ooooXooXooooXoooooo         ",
"                           ooooXooXooooXoooooo         ",
"                           ooooXooXooooXooooooo        ",
"                            oooXooXooooXooooooo        ",
"                            XooXoooXooXoooooooo        ",
"                            oXXoooooXXoooooooooo       ",
"                            oooooooooooooooooooo       ",
"                           ooooooooooooooooooooo       ",
"                           ooooooooooooooooooooo       ",
"                           ooooooooooooooooooooo       ",
"                           ooooooooooooooooooooo       ",
"                           ooooooooooooooooooooo       ",
"                           oooooooooooooooooooo        ",
"                           oooooooooooooooooooo        ",
"                          XXoooooooooooXXXoooo         ",
"                        XXXXXoooooooooXXXXXoo          ",
"                       XXXXXXXoooooooXXXXXXX           ",
"                                                       ",
"                                                       ",
"                                                       ",
"                                                       ",
"                                                       ",
"                                                       "
};
