/* XPM */
static char *_fd8146ef32a44a6b61a6f85fe42011c5j92CMocxdq16T5k[] = {
/* columns rows colors chars-per-pixel */
"55 75 4 1 ",
"  c None",
". c black",
"X c #B9BACA",
"o c #CECFE0",
/* pixels */
"                                                       ",
"                                                       ",
"                                                       ",
"                                                       ",
"                                                       ",
"                                                       ",
"                                                       ",
"                                                       ",
"                                                       ",
"                                                       ",
"                                                       ",
"                                                       ",
"                                                       ",
"                                                       ",
"                                                       ",
"                                                       ",
"                                                       ",
"                                                       ",
"                                                       ",
"                                                       ",
"                                                       ",
"                                                       ",
"                                                       ",
"                                                       ",
"                                                       ",
"                                                       ",
"                                                       ",
"                                                       ",
"                                                       ",
"                                                       ",
"            XXX        ooo                             ",
"           XXXXX      ooooo                            ",
"           XXXXXX     oooooo                           ",
"           XXXXXXX    oooooo                           ",
"           XXXXXXX     oooooo                          ",
"            XXXXXX     oooooo                          ",
"            XXXXXX     ooooooo                         ",
"            XXXXXXX     oooooo                         ",
"             XXXXXX     oooooo                         ",
"             XXXXXX     oooooo                         ",
"             XXXXXX     ooooooo                        ",
"              XXXXX     ooooooo                        ",
"              XXXXXX     oooooo                        ",
"               XXXXX     oooooo  oooooo                ",
"               XXXXX     oooooo oooooooooo             ",
"               XXXXX      oooooXoooooooooooo           ",
"                XXXX      oooooXooooooooooooo          ",
"                XXXXX     oooooXooooooooooooo          ",
"                 XXXX    XoooooXoooooooooooooo         ",
"                 XXXX   XXoooooXoooooooooooooo         ",
"                 XXXXooooooooooXXoooooooooooooo        ",
"                 XXoooooooooooXXXoooooooooooooo        ",
"                 XooooooooooooXXXoooooooooooooo        ",
"                 oooooooooooooXXXooooooooooooooo       ",
"                ooooooooooooooXXXooooooooooooooo       ",
"                ooooooooooooooXXXooooooooooooooo       ",
"               oooooooooooooooXXXooooooooooooooo       ",
"               oooooooooooooooXXXoooooooooooooo        ",
"               ooooooooooooooXXXooooooooooooooo        ",
"              oooooooooooooooXXXooooooooooooooo        ",
"              o...oooo...ooooXXXooooooooooooooo        ",
"              ooooooooooooooXXXXoooooooooooooo         ",
"              ooooooooooooooXXXoooooooooooooo          ",
"              oooooooooooooXXXoooooooooooooo           ",
"               ooooooooooooXXooooooooo                 ",
"                oooooooooo                             ",
"                  oooooo                               ",
"                                                       ",
"                                                       ",
"                                                       ",
"                                                       ",
"                                                       ",
"                                                       ",
"                                                       ",
"                                                       "
};
