/* XPM */
static char *cc9f3d8f806942abd6464fb0b9efc13acvKjMJMO4YFmCFXM[] = {
/* columns rows colors chars-per-pixel */
"55 80 4 1 ",
"  c None",
". c black",
"X c #B9BACA",
"o c #CECFE0",
/* pixels */
"               oooooooooooo                            ",
"                oooooooooo                             ",
"                  oooooo                               ",
"                                                       ",
"                                                       ",
"                                                       ",
"                                                       ",
"                                                       ",
"                                                       ",
"                        XXX        ooo                 ",
"                       XXXXX      ooooo                ",
"                       XXXXXX     oooooo               ",
"                       XXXXXXX    oooooo               ",
"                       XXXXXXX     oooooo              ",
"                        XXXXXX     oooooo              ",
"                        XXXXXX     ooooooo             ",
"                        XXXXXXX     oooooo             ",
"                         XXXXXX     oooooo             ",
"                         XXXXXX     oooooo             ",
"                         XXXXXX     ooooooo            ",
"                          XXXXX     ooooooo            ",
"                          XXXXXX     oooooo            ",
"                           XXXXX     oooooo            ",
"                           XXXXX     oooooo            ",
"                           XXXXX      ooooo            ",
"                            XXXX      ooooo            ",
"                            XXXXX     ooooo            ",
"                             XXXX     ooooo            ",
"                             XXXX     ooooo            ",
"                             XXXXoooooooooo            ",
"                             XXoooooooooooo            ",
"                             Xooooooooooooo            ",
"                             oooooooooooooo            ",
"                            ooooooooooooooo            ",
"                            ooooooooooooooo            ",
"                           oooooooooooooooo            ",
"                           oooooooooooooooo            ",
"                           o.oooooo.ooooooo            ",
"                          oo.oooooo.ooooooo            ",
"                          oo.oooooo.oooooo             ",
"                          oooooooooooooooo             ",
"                          oooooooooooooooX             ",
"                          ooooooooooooooXX             ",
"                           ooooooooooooXXX             ",
"                            ooooooooooXXXo             ",
"                              ooooooXXXXoo             ",
"                               XXXXXXXXooo             ",
"                              XXXXXXXoooooo            ",
"                              ooXXXoooooooo            ",
"                             oooooooooooooo            ",
"                             oooooooooooooo            ",
"                             ooooooooooooooo           ",
"                            oooooooooooooooo           ",
"                            oooXooXooooooooo           ",
"                            oooXooXoooooooooo          ",
"                           ooooXooXoooooooooo          ",
"                           ooooXooXooooooooooo         ",
"                           ooooXooXooooXoooooo         ",
"                           ooooXooXooooXoooooo         ",
"                           ooooXooXooooXooooooo        ",
"                            oooXooXooooXooooooo        ",
"                            XooXoooXooXoooooooo        ",
"                            oXXoooooXXoooooooooo       ",
"                            oooooooooooooooooooo       ",
"                           ooooooooooooooooooooo       ",
"                           ooooooooooooooooooooo       ",
"                           ooooooooooooooooooooo       ",
"                           ooooooooooooooooooooo       ",
"                           ooooooooooooooooooooo       ",
"                           oooooooooooooooooooo        ",
"                           oooooooooooooooooooo        ",
"                          XXoooooooooooXXXoooo         ",
"                        XXXXXoooooooooXXXXXoo          ",
"                       XXXXXXXoooooooXXXXXXX           ",
"                                                       ",
"                                                       ",
"                                                       ",
"                                                       ",
"                                                       ",
"                                                       "
};
