/* XPM */
static char *_126d3ec98404f46f71ead759de327f9OpNoLPJdSm22uWhY[] = {
/* columns rows colors chars-per-pixel */
"64 64 34 1 ",
"  c #232323",
". c gray15",
"X c gray17",
"o c gray18",
"O c #323232",
"+ c #353535",
"@ c gray22",
"# c #3F3F3F",
"$ c gray25",
"% c gray28",
"& c gray29",
"* c #4C4C4C",
"= c #515151",
"- c #555555",
"; c #5A5A5A",
": c #5D5D5D",
"> c #606060",
", c #676767",
"< c #686868",
"1 c #6C6C6C",
"2 c gray44",
"3 c #747474",
"4 c gray47",
"5 c gray50",
"6 c #808080",
"7 c #848484",
"8 c #8B8B8B",
"9 c #8E8E8E",
"0 c #909090",
"q c gray59",
"w c #9B9B9B",
"e c #9D9D9D",
"r c #A4A4A4",
"t c #A9A9A9",
/* pixels */
"4:=%*9797wwr4>2272<3,-&oO-=,<22<2<*%=$%@X6967<#O#>956786e8=#:&&=",
",,#&557725803>>>,<62>:;$+@&:>261,:&%*@#X$652,$%5507998553<-@@*=*",
";@;7272212742;-::,43=*-&*#+,>11;:>=%&&@.=5*+>7621,13<6362,;--+%&",
"X=444<533174>;:>2144;%-*@*%@122<-;*#=*o%;q65683<,<41,<52:-&;-=@O",
"O68,65,1>40:;=<<,5,2>-%%*--&&33>>:&-=+%78q57811<:<:1,>4<;>=-;=&O",
"o9536>,<12<**;>><,:1,>>*$*==+:1>3:-&+#>68792352,<3,,>14,;,$$%:&%",
"o$267<1<1==;-;-,><,,,,&=$=-&$#%%@+@%%$=144288485<222233>:%#%-=;%",
"#63-*>>,>=*;-;,>:=*:3-:=*;=O#:4550343>%2432146563<161,1,,*&&-;-#",
"86585<%=-**-*=1,,-%<1>>;==$*063997w4<,->5<,21<994,,>;:>3;=&&-;-.",
"141731,,#@=&,:>,1%=11<>*;&*6q75q9741<32%<26<1331<:**=;>1>;%&-$$<",
"11172:<,1<=O*;,<;&,,<<>%*+9991,7771<212o175715>>:=$-::=;,>*&=&&4",
"7<761:12,>-;##%;>->><:=&@2336<,7542<-=*#444117::;%-1>>&=<1*==+<4",
"2842,:2<,&;&#%&$@#&,:;-&#723<<q35,=&$*%$,12,<<&*->,3>:&*,<-%*#91",
"7692<:<;**:$<33651-O$&=+<03<->12<&&*&&O=O:,,,:;=;,:,:--%=<2%o=45",
"8q01->,=$;&22608<:><<=$&43<>>,4,=:*--@,3*&;2>:>1,1,>-&;$*2=@;&+8",
"091>;;;-=$279741;=>,3;:%7>;;-1<;*=-$o5236-@=13><<>><:=&%-;@546%;",
",2,;&%&*16671,>>:-:<<>-#;=&;1,2,>%&+5<>12,=##:>>>,--&%*:-X38211#",
"+<:*;+>94543<:;1:;>,>;-#@&=:2,1*$#*5<<,<>,--=+%1>=&*%%;=@373>>>&",
"%@--@4835522,,;>:>>2<,,:*@*2<=O#:723312221;;=%+*&*&#=---923,1>:;",
":,@ >56733646<;;,>>1::=1:&@+;578677q523912<=:;OO**=#$@307383>22:",
"4;@%4584<2<322>,<<>2-;&;:+&8q7<4236854652>>,-:=%%$><5r2433222><1",
":@:=30733,<,:,1<>2,:&%=:-+&33312114368733,1:-:&$>wq68756634,,>>:",
"=*=>:q6<4:<:,-2,,><,:-;::O32322:;13335411>,2>::*6957832481,:=-=-",
"%#*:$93,2,1>;;1;>>,;>>:;:@e,212,>4224:>-,>,<<>:;5963>3773,>***:=",
"%&;=#@<><:;:<1-&<<,--;==+*021;3,<2<,;*%=1<,<,**:393:><>>,=%&$&=*",
"*%$@+$=-:;*:<2;#;,:;&:$&+=72<<<>:1;=;&=;<,1--:->>71,>;=-:=**#--=",
"#28767%$:;:>,>==&>-%&=%O=<>%#*::;;<-=*=:1<;=;:>:%7<,-&$;:=*%%%;;",
"8044341,#-<<<=;=&>;*#%$=35q01,$,=;>;&*>,,:-;=*-*@5>-*&-11*=$&+:q",
"745,6773-#:,,=:=$**#@%447w73<2=&;-;=-;>>,;*****O&%;-&&121;*O3w07",
"5421<3<>$-#*;-*&%#o%24598332,<,>$-=-;1<;;,=;*;&53=&==;:1-@+77687",
"1541::;=;,:#O&%@XX>76575q00<<122<*$&*>;-;*===&612<@%*:;#,5454403",
"51<2;:-:;;:*$<22&%857538q782,1<:,4=O%;;:=*&$*23352*@O%=675683561",
"36;2=>,1==***42,%>9<49790531:-=-,2,1#-*=%-&<7q8,5<&&33439q545421",
"35>:--=,;&&$>,22:4790457341:;;><13>1*+%*#=7472472,=%39q63334707>",
"1:;*-;&:=;#>,141-5093765><:;->>131,1=$&-6642<6<21:=#9q4552q32353",
";>=&>;=&--@:,11:&44215133<:=;::4,31>*@*31<<11<,><>>=68121756425<",
";>:1>:&=*+&#$$##X24542>321::,:13<13=-+31:,:2123<*>>2*5,1404066:>",
":>--***-o*3q947,$-6<<,,;;,12>262243:*@11<<51162:&::1=,<<697385:,",
"1:-$**=+*q6037583-=>;,-&=;4,324,>,1%=+;>1<6256>-&**:*1287762<1<5",
";*-@==O=74331535<>=$-;&%=,62:-<<<21-*o&$124654=&&&=-%=35669>31::",
"-=;**O%3323137631<,&O@$;<,2-*-21<<1>=o4-#=,12<-=-;;>$$3694<;>:>=",
"&=-*+;934532471><--;$+,*=<:*$-1<><1<=$842<$O@--&;*;*&%122-%&==:=",
"&&%@1583762211>;-&*-$65,3:&-;*;:*:,:=,7212<:>&#X+O@%,,*$&=&*==-:",
"*.&238642472-:;=;=*&*87<246<#$&&*&<;O3361<<>:,>#>6347844<#o+=-==",
"o65740885592*;>:=-%>=<5:>241*+*=%@+X$773,11>>=O242867362,,<>*O*+",
"84899757764<=;:;>1>*=#<,:52;+%%-:2<&#1<:-:>,;#<235533<542<:>;%#+",
"7475q75627113,:,<2>-=#-2,,,++8970366,%%=->,>-;6w3>365:2533:2=&%#",
"966887w976,24>,1<<;;-=$-:-X-9q5983351;&@*:,,-41<>:287:4<<,<,&-%<",
"t318636<33>>43,:;-$-=*$@++90831762<11>==@@:>&41,11385211,1<>>;-7",
"q53588634<>;22-*-=&=-**--40e941<>13<3,1:-@+;#5<2,1,6574>:,,3>214",
"76<3<32;<:==-==&=*-;---+e50q5745,,>,<,:-*%$@&2<>,<<4q941,3>>=,,$",
";3,:1;:;&=-=-*&&%-;-:;*;86w32265<4<62<1-*1*&+3<:1325453512<,-;>o",
"O1-:>1<:=:<>=:@&-=:==;$2q56<12347065744<1>:*+5<:3516>--,2>2:;;$$",
"X%;:,1,,,>>,;,=-==--==@6423223<<5738651>-;-=#<>12633=-;;:;*;-=>+",
"##&&-;>>;-<<3<:;-*=;=#%9233<:112870531,-&&*=%12221<-;;:*>;;=;;*X",
"64<#@--;-:<1:>;=;*;*-+:2461<<23836963-;&&*=;&3265,>-,1<>,2;=::@5",
"552-#$&%&&1*-&*=;-*-@<&344,1::596644<>;#;*=&%>58>&-:,34<<;=;*#79",
"563::*@%$%*%$&==-=+>33;<1<,,-1504:<,<<&%*-%%+*<:=%;126>--;-=O615",
"575:>-=*-ooO@#@O+$23231;1,,111774&:>>-*%-**O*+,;#-:<,<:*%-;-#936",
"63,>=-@398w7,1484=,33<,*211:2321<&>;,*&%&&#*3=;&&,111--**&*&<656",
"q:,;$%*43376q64577;>,>>#14>>4452<-==:;:%*@#56<#=%,>,,**#*=%#7969",
"52>*$#53496q8091467->;%O8:::<3133>%==;-;%X595:o&$=-;:*&=-;+:0610",
"2:=&*o8493qq58535094*Oo+4,>;,3612<-;$#-$#+e91:@*:*&-&*%#++$681<<",
"2;=;$6999w98,1>17588>*+O2::-115,1,>*$$&$X:9962*#-%Oo@:611&%96:;;"
};
