/* XPM */
static char *b4de9f1826bf4fa6a575e8da621e6aea7cEbFF4gdV5WJCTQ[] = {
/* columns rows colors chars-per-pixel */
"64 64 251 2 ",
"   c #1C140F",
".  c #160F16",
"X  c #161116",
"o  c #1C1315",
"O  c #1D1915",
"+  c #171218",
"@  c #1B151B",
"#  c #1D191D",
"$  c #23150D",
"%  c #2C160D",
"&  c #39160E",
"*  c #3F0E17",
"=  c #231514",
"-  c #2B1414",
";  c #241915",
":  c #2B1A15",
">  c #22161B",
",  c #2B1619",
"<  c #22191B",
"1  c #2B1B1A",
"2  c #331414",
"3  c #3C1514",
"4  c #331B14",
"5  c #3B1C14",
"6  c #3A1419",
"7  c #331C1A",
"8  c #3B1D1B",
"9  c #27201B",
"0  c #2D201B",
"q  c #362016",
"w  c #3B2316",
"e  c #34211B",
"r  c #3B221B",
"t  c #1F1724",
"y  c #1D1920",
"u  c #221720",
"i  c #231A21",
"p  c #2B1D21",
"a  c #2F1F2A",
"s  c #2B2121",
"d  c #392421",
"f  c #4D0F0F",
"g  c #4B150D",
"h  c #55140D",
"j  c #5A190D",
"k  c #5D0E13",
"l  c #431513",
"z  c #4B1414",
"x  c #431C14",
"c  c #4B1D13",
"v  c #441919",
"b  c #4C1A19",
"n  c #541313",
"m  c #5B1312",
"M  c #561816",
"N  c #5B1B14",
"B  c #531C1A",
"V  c #6E0F0E",
"C  c #7B0F0D",
"Z  c #67140E",
"A  c #6B140E",
"S  c #76170E",
"D  c #7B130F",
"F  c #6E0F10",
"G  c #710E15",
"H  c #7C0E11",
"J  c #631312",
"K  c #6B1313",
"L  c #651A15",
"P  c #6A1A14",
"I  c #6A1718",
"U  c #641B19",
"Y  c #731312",
"T  c #7C1211",
"R  c #761B16",
"E  c #4C220F",
"W  c #432314",
"Q  c #4B2415",
"!  c #4B2917",
"~  c #44241B",
"^  c #4C2419",
"/  c #43291B",
"(  c #4D2B1B",
")  c #522516",
"_  c #5A2414",
"`  c #532B1B",
"'  c #572818",
"]  c #5A2C19",
"[  c #5B311C",
"{  c #672817",
"}  c #782916",
"|  c #673218",
" . c #6C331B",
".. c #743315",
"X. c #76381B",
"o. c #4A2521",
"O. c #840E0C",
"+. c #8C0E0D",
"@. c #950E0D",
"#. c #9C0E0C",
"$. c #83130D",
"%. c #8C130D",
"&. c #891A0D",
"*. c #95120C",
"=. c #9B130C",
"-. c #941B0E",
";. c #9B190C",
":. c #840F13",
">. c #8B0E11",
",. c #970D12",
"<. c #831412",
"1. c #8B1312",
"2. c #841B14",
"3. c #8B1A11",
"4. c #891C19",
"5. c #941312",
"6. c #9C1412",
"7. c #961913",
"8. c #A40E0D",
"9. c #AC0D0D",
"0. c #B40E0C",
"q. c #BC0D0D",
"w. c #A71807",
"e. c #A3130C",
"r. c #AC140C",
"t. c #A41B0C",
"y. c #AD1A0D",
"u. c #BB1A06",
"i. c #B3140D",
"p. c #BA130C",
"a. c #B41C0C",
"s. c #BC1B0C",
"d. c #A40E12",
"f. c #AA0F11",
"g. c #B30D11",
"h. c #A41212",
"j. c #A91911",
"k. c #BB1410",
"l. c #B21813",
"z. c #BB1B11",
"x. c #9A250E",
"c. c #872517",
"v. c #972314",
"b. c #873616",
"n. c #983112",
"m. c #A2230C",
"M. c #AA240B",
"N. c #B8260C",
"B. c #B5350C",
"V. c #A62713",
"C. c #B62A12",
"Z. c #B73313",
"A. c #C70E0D",
"S. c #C21707",
"D. c #C5140C",
"F. c #CC140C",
"G. c #C41D0B",
"H. c #CC1C0B",
"J. c #D21D06",
"K. c #D2140C",
"L. c #D41C0A",
"P. c #DA1D0A",
"I. c #CB0912",
"U. c #C51712",
"Y. c #CD1D11",
"T. c #D51B12",
"R. c #E01C0F",
"E. c #C6250A",
"W. c #CD240C",
"Q. c #C42C0C",
"!. c #CD2A0E",
"~. c #D72506",
"^. c #D4220C",
"/. c #DB250C",
"(. c #D42B0B",
"). c #DA2C0B",
"_. c #C7380D",
"`. c #CC3C0B",
"'. c #D5340D",
"]. c #DC330C",
"[. c #D93A09",
"{. c #DC3A0D",
"}. c #C62411",
"|. c #C72911",
" X c #D62811",
".X c #DD2D10",
"XX c #C93912",
"oX c #DD3311",
"OX c #D83812",
"+X c #E02908",
"@X c #E32C0C",
"#X c #E1340D",
"$X c #E73B0A",
"%X c #E23A0C",
"&X c #E02E11",
"*X c #E43C13",
"=X c #88421A",
"-X c #B64310",
";X c #CA430B",
":X c #C8450D",
">X c #D5440B",
",X c #DB430B",
"<X c #DC4C0B",
"1X c #CA530E",
"2X c #D8560B",
"3X c #C74412",
"4X c #D94A11",
"5X c #E7470A",
"6X c #E4430C",
"7X c #E44C0B",
"8X c #EA4D0C",
"9X c #EA5807",
"0X c #E3530C",
"qX c #E9530A",
"wX c #E35B0A",
"eX c #E95C0B",
"rX c #E54712",
"tX c #D3690E",
"yX c #E86806",
"uX c #E4620A",
"iX c #EC640B",
"pX c #E56B0A",
"aX c #EA6B0C",
"sX c #F16B0C",
"dX c #EC740B",
"fX c #E87A0A",
"gX c #EC7C0C",
"hX c #F2740A",
"jX c #F27C0B",
"kX c #E86A10",
"lX c #ED7910",
"zX c #F37711",
"xX c #E98507",
"cX c #EB830C",
"vX c #ED8C0B",
"bX c #F08706",
"nX c #F2830B",
"mX c #F28A0B",
"MX c #EC9607",
"NX c #F1930C",
"BX c #F69808",
"VX c #F59B0B",
"CX c #EC8412",
"ZX c #F19911",
"AX c #F5A408",
"SX c #F2A60E",
"DX c #F4AA0C",
"FX c #F5BB06",
"GX c #F6B809",
"HX c #F6C50A",
"JX c #F6D006",
/* pixels */
"@ @ y 1 5 o %.>XpXT o ; @ @ @ @ @ y @ < z N.iX<.2 ` y y y y > - A.O.N o @ u @ = o < ; ..- h./.%X,.^ + ` @ @ @ @ @ @ @ @ + + @ y ",
"@ @ @ # | o m '.iXT = < O y # @ @ y @ @ 6 $.sXK.n b O @ @ @ < , 0.I.D @ - 8 ! W w 4 & @ x 8.qX].=.Q o ' # # # @ @ @ @ # @ @ @ @ ",
"@ @ @ # ` o z Q.{.D o < @ y y @ @ @ i @ @ K '.#XV = d @ @ y < o G #X,.N o @ + = @ @ O 1 P i.hX[.S { o v # y @ @ @ + @ + @ @ @ @ ",
"@ @ @ @ 4 o { a.F.K o o @ @ y @ i @ i @ @ m 0.8X#.6 1 y i u < < f OX.X,.P 4 | 8 7 : : m @.6XDXNXS c.@ o ] < y @ + # @ @ y @ + @ ",
"+ @ > y < o ..a.q.z W < # @ # @ # y y @ # 2 %.].A.n > # @ @ y ; = D {.D.F P o o : n Y g.L.cXFXFX<XD K o o = < < # # i @ @ @ @ @ ",
"+ @ @ i i o ..i.e.2 | O @ # # # @ # @ # o < F D.P.J - < @ @ # 1 O 6 Z.5Xz.Y 4.} S g.I./.9XcXvXZXVX].r.2.3 o o < < > < y y @ @ @ ",
"@ @ i # < o ' A.O.= X.O # @ + y y @ # y o # 3 ,.@XF l : i > @ ; w w m :XcXT.z.i.A.rX{.i.=.#.7.5.;.3XgXW.%.L - < < < @ O O @ + y ",
"# i # # O o J H.K o ( # # @ @ @ @ # # # 1 < : Z '.C.m , < < < @ ~ = ..T iXmXjXhX[.d.m 2 , ^ ] r : ~ B x.{.a.;.n : = < < # @ @ y ",
"# # # < + 7 D #XK o < O @ O @ @ @ @ y u < = : - N.'.A - r # y + e = | { H.AXmX;.b O < < y y i # i y > i b 3.W.#.J 1 = < < < @ < ",
": ( W [ : % 1.CXN o < # @ @ @ @ + + @ @ < 1 O : K 5XO.z = < # @ 1 = ` m W.uXR   < < # y u @ @ + @ @ @ @ # u 5 !.6.z ; : < < o < ",
": O = 7 3 n C.1X3 > < O @ @ @ + + @ < # # e O 7 3 Q.r.Y o e # # s < | 2.rX^ O # # # # y @ + + + @ @ @ + @ @ ; ` '.%.= > = 7 < o ",
"# O ! $ 3 2.<X=.> > O > > @ + + @ y @ # # : 4 ; - $.@X<.c O ( % < : ^ L.m.7 # # @ # @ @ + + @ @ y @ + + @ y < 7 M.*XK = 7 $ > : ",
"~ 5 o v L 8.sX<.> 7 < < > O @ + > @ @ @ # # ( ; = S *Xy.P { = @ ; 1 <.rXl 0 # @ y @ @ + + @ @ u @ + + @ i i > 7 x.qXE.S 2 b.> = ",
"^ : x v.6.(.uXP o w , ; > = > @ @ @ @ @ # O ] $ 5 n N.(.K 2.` 1 0 2.P._.< i # @ @ @ @ + + @ @ i @ @ > i < O < : S 7X0XS.K o 5 o.",
"% g -.w.^.nX;XK - 3 8 > , O @ @ @ @ + @ # O ] = w l i.fX8.%.T 2.a.L.6XU 0 < @ @ y y @ @ > u > @ @ < i @ @ < < < _ $XbXfXs.T 2 o ",
"1.9.s.'.nXGX4X3.1 % E 7 # o @ @ @ + @ @ # i ! $ % _ E.GXiX~.K.~.rXeXZXc < # @ @ @ @ @ @ @ @ @ @ @ @ @ @ # < < : v !.jXvXaX4X>.j.",
"Y..X,XjXJXJXcX;.v , , ) , u O # @ # > i p < ' q = -.7XGXfXwXwXfXxXBXBXx < > @ < y @ @ @ @ # @ @ @ @ @ + @ @ < < l N.xXbXxXzXT.q.",
"#XsXmXAXHXFXVXs.m.5 , o ` > # @ # @ < < y , $ : v.].8X9.w.r.e.y.a.W.jX{ < u i < @ y @ @ # + o @ @ + X @ @ i < : m s.iX:XC.m.s.K.",
"D.(.,XwXyXnXNXH.0.r.4.5 = 1 < 1 < < O ; ; : = &.6X6Xe.c.} c 5 ..n.y.7X&.1 < u @ @ y @ @ + @ @ @ @ + + @ u i O , m p.(.=.x...N T ",
",.6.j.v.V.[.8XaXcXS.p.8.5.P M 5 4 - = o - n e.%X#X%.z 7 2 8 7 ; = X.2.%Xo.y y # y @ + + @ @ @ @ @ + + i i i i 7 J F.=.P & { ..{ ",
"1 r o : =X&.+XbXAXgXeX$X$X$X(.i.8.i.s.U.G.].iX,X<.2 p @ @ y y # < i 5 ;.&.8 y y y + @ @ @ > > @ @ < p i y y < 5 Y P.T : | ; < # ",
"@ < e $ 3 c.l.hXvX1Xa.%.<.%.+.,.f.|.0XnXSXVXfXJ 6 < o + X + @ # y > < - OX> < @ + + + @ > < @ o + u @ y @ y < m A.D.K ; ; # # # ",
"+ O # ! X.b.&.zX_.h.U X.5 x x 7 7 4 j >XHXmX3.) : O + @ + @ @ @ @ @ < y 1.2.< @ @ @ @ > 1 @ @ @ @ i u @ u > > O.P.8.3 7 # # @ @ ",
"@ y y # =XX.t.P.&.o ~ O @ @ @ @ @ 7 ; j uX0XP 3 ` y + + + @ O @ # @ @ @ 4 OXn = , > > : < # # O > p # i 1 1 b p.R.Y 1 O # @ @ @ ",
"y @ y y [ | S.p.l 7 @ @ o @ o . o @ 8 _ !.W.Z 5 | = @ < @ @ @ @ @ + + @ 1 6.'.2.5 , o = r < < # < < > : b._ z .XA.v y # @ @ @ @ ",
"@ @ < < o 2./.+.% = @ @ @ @ . + + > 1 ] a.^.h Q : 4 @ @ X + @ @ + + + @ # U 4XjX'.m.$.z o = : 7 q ~ { ' , > Y @XC : @ y # @ + # ",
"@ @ y d * 9./.k < @ O @ @ @ + @ + < 1 x 8.H.m ~ = w O + + X @ @ @ + @ @ @ o.l.DXGXGXdX;X*.J l 4 1 4 : c  .P s.P.J ~ + + X + @ + ",
"# @ # , F J.E.* + + @ @ @ @ @ @ < # # 7 8.).Y = ; o 1 > + # O @ u u > > < 1 5.pXGXFXAXvXgX7Xr.T Z h N Z K g.8Xa.N ~ @ + X . + + ",
"@ # < = e.dXJ > @ + + + @ @ @ y # < y , 5.#X+.- 1 ; = ; ; @ @ @ @ y i i # y -.dXgX2XB.-XV.N.oX/.S.w.M.N.W.2XpXt.B = p i @ y @ + ",
"@ # @ J [.2X7 y @ @ y @ @ @ @ # < d O < H $X0.) = : o 4 < @ @ + @ @ @ @ y 8 3X1X6.3.R ^ 8 v B H e.%X).0XzXvXcXa.N < 7 < # y @ u ",
"y < o 1.dX<.> > > i i y @ @ y < 1 @ e O D #XK.S 4 W 5 = : ; < 1 @ @ y y # V.B.{ r # o y t @ @ , 7 J G.6XdXMXVXN.G Q O 0 # # # y ",
"< + 2 p.2X2 @ @ @ @ y @ > < s o @ # 0 @ I 4XuX=.} % 5 ] = ! : < 0 1 O , 7.V.8 u # i y y y @ > y u : n l.L.uXvX:X<.4 : o 1 y y y ",
"@ , V P.j.s y @ @ @ @ # # X @ # < < = = %.0XbX].+.P { c 4 $ ..X.W < 8 e.;.1 y # y i y i i i y @ @ 1 - 4 5.'.CXG.;.2 = : o < 9 # ",
"@ _ d.rXz < @ # @ @ @ @ @ # @ # < = = P E.hXAXcXiX(.9.@.@.$.Y m c g i.s.: y i # y # > < i t # y i i d : j Q.wX#Xi.R O o o o o @ ",
"Y e.A.(.- @ y @ @ + + @ @ # @ : = o Z w.6XVXVXmXfX8X0X8X$X%X~.h.=.J.oX7 y @ + @ y y y i y y y y # y < w w S 7X%XA.w. .) : : < : ",
"k.H.].e.+ y y @ + + + @ # @ # : @ h +.).[.(.W.U.G.s.q.U.U.k.D.L.#X9Xg O @ @ + + @ i @ # # @ @ # # # i @ = j 9XiX,XQ.=.+.>.O.H H ",
"iXiX%Xm @ # # @ @ @ + @ < > 1 > - O.H.*Xr.%.T J 3 $ $ n R &.e.y./.qX> < # @ + @ @ > @ @ y @ @ @ @ @ y < O 3 [.bXbXnXaXrX^././.).",
"hXsX].n = s # # # # @ > O w O O f d.*X,.P 8 7 / q e 7 7 e 0 h C.=..X= < @ y @ > @ u @ @ @ + + + + @ i = = % '.FXNX<Xd.H m k G 1.",
"u.9Xl.v o ; p @ # @ O 1 Q o = = H /.w.R q ~ < # # < < < # < < c 7.^.- > y @ @ @ @ @ @ @ + + @ @ @ @ # > : & <XFX;XY B r < # > < ",
"P %XJ 7 < @ < ] X.X. .~ X < w 4 i.].:.v p y y > @ # # # # i # , M  XZ o < # @ @ @ + @ @ + @ + @ u # p o { L pXM.3 < @ @ @ @ @ y ",
"k ).Y > 1 @ o o .   o o @ > = j ).e.2 2 < y # i @ @ @ @ @ @ @ y v ;.8.~ 0 : > O @ + + @ @ y u i t < O 5 = i.Q.2 : @ @ + + @ @ y ",
"M Y.I @ : o o o o o . o < 4 : $.+XD = 7 y @ # @ @ + + + + @ + y 7 V D.v < : ` : @ > @ > O @ # # # @ : ] l ].z ; @ @ + + @ @ u y ",
"k A.U 5 - < ; = = o > : : = { S.a.c @ p @ @ @ @ @ + . + @ @ @ @ @ n ).A ` = + W : < < > < < < > O 7 ! ; j.*.< o @ # @ + + u @ @ ",
"J Z.4.2 ' < > ; > , : ; ^ , ;.].%.x = < + @ i @ + . + @ @ @ y @ @ z &XT : | : o o < r r 7 < < : O = : <.|.o + + @ + @ @ > u y < ",
"S 4X9.R 3 4 o.x - , 4 X.- c.`.,X<., ; # < < @ @ + + @ @ @ y @ @ # v Y.,.< o = = o o o o o o o @ 0 o.-.H., @ + @ + + @ @ > @ @ p ",
"V iXrXp.8.T b 6 % 2 3 & x._.jXQ.U 1 < # # @ @ @ . . @ @ @ @ @ @ # v (.e._ @ > < < : 1 1 7 - : w Z E.W.m < @ @ @ o @ > + @ @ @ i ",
"+.8XL.F./.@X XD.!.Q.H.).iXGXVX#.v < @ + @ # @ @ . . + @ @ @ @ @ # h <X3X4.| b U K :.>.6.0.r.z.!./.{.<.b # @ # @ t @ @ @ @ @ @ @ ",
"U.D.d.O.V G >.@.9.i.r.a.<XmXyXT - o @ @ + @ # @ + u @ o @ @ # @ > Y jXwXU.h.5.d.F.T.L.sXkX7XeXwX5X*.3 b > y @ @ + @ @ @ @ > > < ",
").8.J c ^ : : : 7 B N G <.x.wXJ - > @ @ @ @ # @ @ @ y @ # @ # # / %.mXDXfX,XeX0X6X&X>XpX2XjXVXvXM.G 8 : 7 < @ @ # @ @ @ y < @ = ",
"h.3 < 7 @ > @ @ @ @ # @ 6 c.OXn = < @ o @ @ y @ @ + @ @ + @ @ @ _ i.nXGXAX>X].s.8.5.K J x.i.2XVXj.= 1 i < > 1 @ @ @ # @ y @ : # ",
"m : > o < @ @ @ + + y u # & (.n > > @ @ u i # @ + @ @ + @ @ @ < l J.mXpXQ.5.Z 3 , < r / W c i.pXN.; p < # O o < # # i y 1 ^ < ; ",
"2 @ y + . o @ @ @ @ @ @ O , K.h = : < i < @ # @ @ @ + + @ @ > w S ^.dX;XY < d < # > @ @ # : N G.Q.l o 7 < < O @ @ @ # : 5 O = - ",
"p < @ @ @ @ + + + @ @ @ ; $ H.Y - d < < < @ y # y + + @ p y : 6 p.0X{.h.= d # i @ @ + y y i O 2.eXY o < : < ; # O > 1 $ ; o q m ",
"4 1 # # # @ + + + @ # @ : o oXT 4 7 < > i y # # @ @ @ > @ > , T L.5X0.z 1 < > @ u + @ @ i p i : ].9.~ o = 4 4 4 7 $ : = ; x %.XX",
"o ] < o @ O > > # y # @ 7 6 5XT x + | < # # # # y @ y < 5 ! l e.).L.,.o 1 i > @ y + > i y y < p ,.'.h o = = ; e 7 o > 7 K 0.2XmX",
"r + ] < = p < 1 w / : o < 3.%X5.l , o ] [ 4 < O @ u > ^ ) = A }.).A.n 1 @ y > @ @ @ @ @ @ # # O f eX6.` o o o o : m e.OX!.}.iXAX",
"n 8 o 5 O + ; o o = < 4 R L.jX}.b ' u + o o O ; : = 7 - = : %./.L.8.= r @ @ > @ @ @ @ @ @ y # < 4 u.).e.c.b b 1.%XZ.h > O O - 5.",
"!.%.J - < 1 | .._ 4 J d./.cXGXxX*.: x | ~ 4 4 : = o = = ; v.y.,XA.<.o 7 @ @ > @ + . + + + @ # O 7 r.hX>X`.].U.A < ; @ @ + # ; o ",
"=.rXp.D N = O ; U *.A.).wXfXMXfX<X%.R 3 = o o @ O < < 7 4.+.{.rX0.n @ 1 @ t > @ + + @ @ @ @ < < = h.VX-XK , ; o O # @ @ @ @ < O ",
"2 Z.iXW.&.v.} 7.g.K.#XL.U.9.g.N. XL.D.#.Z N U U U L m :.i.,XxX>X=.6 @ , @ @ @ @ + @ @ @ i i > 1 3 _.tX3 < > @ + # @ @ # @ y > @ ",
"O 2 C.iXD.#.d.A.L.0XD.#.m.b.b.P <.k.T.^.).W.s.i.i.q.K.J.0XbXDX-X>.2 # # @ @ @ @ @ i u > a r : l =.vX%.: # @ @ + y @ @ @ + i @ < ",
"O o & r.@X%X^.aXVX:Xv...r 0 < 9 w b T (.SXDXSX9X8X%X#X0XjXvXDXXX1.: < # y @ @ @ @ @ @ < ~ = 1.0.aXQ.l 1 O @ @ # u @ @ # @ i @ # ",
"@ < o h 0.7XHXHXMX#.] : # # # # # : l 7.aXJXMX-X9.q.F.!.|.N.0X4X1.B = # y @ y @ @ @ # ! 4 m e.6XpXg.> 8 @ @ o @ @ @ @ < i y @ y ",
"< O o o n C.fXFXpX=.; # @ @ # # y e # K _.NXW.=.} % m Y 6.1.a.rX6.P @ @ y @ y @ # # ;  .o 7.A.qX;X5.< v @ @ @ @ @ @ @ @ @ @ @ @ "
};
