/* XPM */
static char *_dd0c5d82b5b4dd2dcf597de870ca0b0RceEYAOuo4ZHTrAJ[] = {
/* columns rows colors chars-per-pixel */
"64 64 206 2 ",
"   c #151D0B",
".  c #17210A",
"X  c #1A250C",
"o  c #1D2A0D",
"O  c #1E2416",
"+  c #1E2910",
"@  c #1F231A",
"#  c #202F0D",
"$  c #23330E",
"%  c #202716",
"&  c #212B14",
"*  c #22251E",
"=  c #252B1C",
"-  c #282D1E",
";  c #263316",
":  c #273910",
">  c #2A3D12",
",  c #29321C",
"<  c #2C3A1A",
"1  c #303C1F",
"2  c #252623",
"3  c #262921",
"4  c #2A2C25",
"5  c #2B2B2A",
"6  c #2D3223",
"7  c #2F3129",
"8  c #303526",
"9  c #323C24",
"0  c #31332C",
"q  c #35392C",
"w  c #383D2D",
"e  c #353531",
"r  c #373832",
"t  c #3B3C34",
"y  c #3E3E39",
"u  c #2E4213",
"i  c #304615",
"p  c #344C16",
"a  c #384F17",
"s  c #32441C",
"d  c #394E1E",
"f  c #375117",
"g  c #3B541A",
"h  c #3E5A1B",
"j  c #374821",
"k  c #3B4E22",
"l  c #394528",
"z  c #3E5322",
"x  c #3E4035",
"c  c #3F4039",
"v  c #415D1C",
"b  c #45631D",
"n  c #48671F",
"m  c #47681E",
"M  c #496A1F",
"N  c #414E2E",
"B  c #405526",
"V  c #435B23",
"C  c #43542C",
"Z  c #465C2A",
"A  c #495E2D",
"S  c #43443C",
"D  c #45483C",
"F  c #465432",
"G  c #495636",
"H  c #4B5C33",
"J  c #47513A",
"K  c #4A553A",
"L  c #4E5B3A",
"P  c #515E3E",
"I  c #466222",
"U  c #496525",
"Y  c #4B6C21",
"T  c #4B632B",
"R  c #4E692B",
"E  c #516D2C",
"W  c #4E7121",
"Q  c #517523",
"!  c #557B24",
"~  c #587E25",
"^  c #54732C",
"/  c #56792A",
"(  c #597C2C",
")  c #4E6233",
"_  c #4F6830",
"`  c #516635",
"'  c #536B34",
"]  c #54643C",
"[  c #566A3A",
"{  c #596C3D",
"}  c #577134",
"|  c #597236",
" . c #5D7B34",
".. c #5C733C",
"X. c #5E783B",
"o. c #60773F",
"O. c #61793F",
"+. c #454540",
"@. c #4A4C42",
"#. c #4F5144",
"$. c #4F5645",
"%. c #525B44",
"&. c #535649",
"*. c #52544B",
"=. c #565C4B",
"-. c #555552",
";. c #5A5D54",
":. c #5E5F5A",
">. c #566243",
",. c #596545",
"<. c #5C6C43",
"1. c #576148",
"2. c #5B644C",
"3. c #5E6A4A",
"4. c #5E7142",
"5. c #5E6354",
"6. c #5F6159",
"7. c #616D4D",
"8. c #617445",
"9. c #647A43",
"0. c #64734B",
"q. c #68764F",
"w. c #66794A",
"e. c #697B4D",
"r. c #616555",
"t. c #636B53",
"y. c #62645C",
"u. c #666B5A",
"i. c #696D5D",
"p. c #667251",
"a. c #697555",
"s. c #6C7A53",
"d. c #6C735B",
"f. c #6E795A",
"g. c #707B5B",
"h. c #727C5D",
"j. c #656662",
"k. c #676862",
"l. c #6A6B64",
"z. c #6E6E69",
"x. c #6E7263",
"c. c #6F7069",
"v. c #717564",
"b. c #747B63",
"n. c #797F67",
"m. c #73736C",
"M. c #77796B",
"N. c #797D6C",
"B. c #767671",
"V. c #7B7C72",
"C. c #5B8326",
"Z. c #5E8628",
"A. c #5F8928",
"S. c #618629",
"D. c #628B2A",
"F. c #67922C",
"G. c #6B932D",
"H. c #6C9B2E",
"J. c #638238",
"K. c #6F9937",
"L. c #6F8153",
"P. c #718255",
"I. c #75825C",
"U. c #798A5D",
"Y. c #778162",
"T. c #7A8365",
"R. c #7E8B65",
"E. c #7D836B",
"W. c #7F886B",
"Q. c #7E8172",
"!. c #80866E",
"~. c #838B6E",
"^. c #88946E",
"/. c #828574",
"(. c #858A74",
"). c #898E76",
"_. c #85867A",
"`. c #878979",
"'. c #8A8C7C",
"]. c #8A9275",
"[. c #8E917C",
"{. c #91957E",
"}. c #939A7E",
"|. c #8D8E81",
" X c #8F9081",
".X c #939483",
"XX c #969983",
"oX c #999C86",
"OX c #979789",
"+X c #97998A",
"@X c #9B9C8B",
"#X c #9E9E91",
"$X c #9CA087",
"%X c #9EA18B",
"&X c #A1A38E",
"*X c #A5A98F",
"=X c #A4A492",
"-X c #A6A992",
";X c #A9AA95",
":X c #AAAB98",
">X c #ACAD9A",
",X c #AFB09B",
"<X c #B1B29D",
"1X c #B5B5A2",
"2X c #B9B9A4",
"3X c #C4C5AE",
/* pixels */
"L ` ` h.] P h.h.{.=XQ.).n.7.x.(..X'.'.Q.d.5.#.*.c y S -.j.j.:.@ -.-.:.z.B.B.k.m.l.*.:.i.:.2.=.H r.h.G 3.v.Q.'..X`.V./.v.n.d.0., ",
"i.8.q.~.' ` O.[ %X<X-X<X$X).OX&X=X@X`./.N.h.h.x.k.k.k.l.z.j.z.5 :.z.B.B.B.B.x.l.m.j.l.z.i.:.5.2.7.n.>.2.M.E.&X$X&X(..X[.`.(.!.* ",
"t.0.s.e.E ^ v s.{.,X:X2X;X=X;X>X=X:XOX'.!.h.8.i.m.k.j.z.B.z.z.5 j.z.z.B.B.i.y.l.y.l.d.t.7.r.%.i.M./.i.i.n.p.].{.{.E.[.(.n.`.`.4 ",
"[ ..[ h.{ b C !.XX:X<X>X>X=X;X>X;X;X[.).Q.] ` A r.j.j.z.z.B.z.5 :.z.B.z.j.m.c.B.V.N.2.P L O.f.!..X(.M.N.f.d.w.0.^.g.e.t.8.h.!.4 ",
"H 8.8.U.h.8.!.!.&X&X:X;X@X&X{.>X:X=X XE.g.q.7.2.2.6.j.l.c.m.z.5 :.z.z.z.k.B.V.B.{.].i.' 9.Y P Q.'.(./.` ' 9.D.~ b ..U 3.8.{ 8.% ",
"p 7.R.s.s.{.}.XX&X&X&X$X(.}.[.@X;X:XoX`.T.R Z i.x.l.k.l.m.m.z.5 :.z.z.z.l.z.B._./.(.E.9.Q V { i.M././.9./ Q D.M g ' A 0.[ Y n   ",
"s <.| q.s.I.&X].$X$X%X$X).!.[.&X<X=X'.E.q.L =.7.u.i.y.k.k.z.l.5 :.z.z.z.j.m.V.'.[.).].h.R ] N.XX.X{.].g.E C.H.M h ` 3.e...m M o ",
"g _ T s.8.I.oX&X&X;X}.T.w.n.OX/. XoX=X'.'.E.N.x.i.r.%.:.:.k.j.5 j.j.j.j.j.l.OX.X[.).(.[.E.`.[.XX`.n.<.' ` Q ! Q C.I s.7.~ C.C.X ",
"v n o.o.I | %X:X&X&X{.).0.T.$X;X<X&X(.[..X.XOX_.x.y.-.:.:.j.j.5 j.j.j.j.l.z.oX_.'..X[. X&X{..X'.oXoX8.| Z.C.n h Y M V ' E W Z.X ",
"v V [ s.) !.;X}.}.>X}.].Y.!.&X;X=X[.(.'..X|.@XQ.V.V.B.|._.B.z.5 j.z.z.j.l._.@X_.`.@X@X&X{.!.=XoX$X$Xe.M Q C.g n G.Q a Q Q n b o ",
"B B ^ I.!.&X}.=X;X$X{.!.'.@X&X>X;X{././.'.'.'.'.'._._._._._.z.5 j.B.:.j.l.`.'.Q.'.|.=X&X{.{.XX{.&XoX7.n Q W i v M h b M M v g > ",
"v v n R !.;X;X-X,X$X@XOX{.&X{.{.&XXX%X).Q.'.V.B.B.Q._._._.OX#X0 j.l.'.k.Q.`.Q._.'.OX@X=XXXoX@X}.*Xa.Y.A M v d Y W p V ! n g n o ",
"u n T q.T.$X,X>X;X{.&X;X;X$X{.(..X@X X'._.V.OX|.B.V.V.|.|.|.#X5 m.#XQ.M./.'././._.'.@X=X@X@X{.@X{.!.!.E.7.C <.Y k A [ A h C v # ",
": ] ..T !.&X,X;X=XoX@Xn.(.~.(.!..X_.'.'.|._.OX|.m._.V._.'._.:Xy _.:X[.Q.v.E.n.`.'.OX.X&X.X<X@X=X!.h.I.e.t.0.e.T 2.7.7.s.q.4.( . ",
"#.n.n.!.).%X>X:X1X@X_.[.!.I.d.{.@X|.<X|.|.#XOX_.V.V._._.B.'.OXc |.=X|.N.d.T.N.Q.N. XOXOX:X:X&X.XXXT...R H 0.` H a.a.'  . .Y b o ",
"* 8 6 q x +.D +.#.+.x t - 6 - S #.+.*.+.y 0 e y e 0 y 0 7 y S y @.@.-.@.S D D e r S S 5 S -.*.D S q # 1 & - & % j C B g b g :   ",
"H o.>.>.!.{.).x.:.j.V.v.g.H ,.q r.M.'.'.m.y.:.;.z.M.M.N.y.y.Q.V..X_._.:.l.N.M._.Q.|.@X#X#X.X(.r.M.1.v ] N P k a s k s z v n b g ",
"R { s.P.g.}.)./.Q.'.OX!.g.{ q., v.'.OX_.@X/.V.m.M.M.v.v.N.'.OXOX.XB.l._.|._.|.|.#X=XOX=X:X=X=XS n.!.7.d.3.<.[ L Y b Q Q n Y a <.",
"~ v ( v A b.i.Q.[.{.{.!.n.q.` & 2.`.`._.@X}.N.Q.l.u.u.a.{ 2._.OX.Xl.m.V..X.X|.OX=X#X:X:X:X:XOXt v.~.s.U.0.` ` n ~ v ! Q C.g Y Q ",
"Y n v B v C n.x.v./.n.!.!.,.!.t v./.OXQ.'.}.Q.b.7.a.t.%.K ;.l.l.B.B.l.j.j.V.@XOXOX:XOX:X1X'.E.t a.P.` | v v / ~ ! h b b v f Y ! ",
"b v ~ b A 1.r.}.!.b.n.'.(.`.!.q ;.`.{.v._.E.d.g.t.2.t.%.&.:.6.;.:.i.y.l.M.B..X|..X'.@X1XoX(.e.4 v.P.v n H ` Y C.n M h T E M h W ",
"v n b v C v.M.(.0.g.g.`.`.'.h.6 r./.M.q.u.P.| >.7.g.i.&.=.;.:.;.;.;.:.l.l.M..X=X[.'.|.:XoX!.7.6 a.E.A L L d.~ v p U T ` Q n ! C.",
"v v T v 7.M._.!.s.( V a.!.'.v.8 >.n.R.7.[ Y Y n s.~.b.N.7.%.%.r.=.:.j.l.m.M.).~.a.9.n..X(.8.q.< 7.d.I.!.n.!.{ A A { >.` 4.U n C.",
"a v v B r._.{.(.Y.U B o.h.n.[.q K v.O.[ O.U b v L ` a.i.g.L &.;.=.:.j.m.V.d.(.U.v W  .| ..b m o v P M..X^.o.[ P /.[.(.d.p.h R h ",
"] I G ` v.[.}.g.h.7.{ t.`.'.[.x 2./.h.o.!.| B n Z L { U >.;.;.=.:.j.z.V.m.v.s.W g m ! W b m M $ m k x.Q.v.[ 7.3.E.[.(.q.3.5.v.p.",
"2.H ,.t./.>Xg.o.h.R H !.'.'.`.S M.}.[.v.{ q.V ` ] <.~ n B P ;.2.;.j.V.V.V.d.0.b C.C.! g h ! M o p C k.c.v.7.p.v.E..X(.p.n. XQ.z.",
"N.g.i.{.&XI.} [ 7.] { b./.`.{.x v.{.).a.[ [ T | E Q v v B L P r.y.z.V.V.v.a.<.^ C.! F.b m m b o u >.r.m.m./.Q./.|. X_.[.`./.`.m.",
"/.Q.Q.$XT.q.[ ] Y.q.>.{ t..X=Xt d.{.).v.u.q.[ n n n Y Y B L #.r.y.m.z.l.0.X.O.W C.C.A.C.! ! W o p H x.c.V.Q.i.V.M. X.X X'.n.Q.`.",
"!.).s.!. .w.T 7. .R [ { E./.OXS v.{.(.v.{ 7.A v n v n Y Y C &.r.6.l.l.i.E Q Q n C.m M Q W ! W u s r.z.i.z.x.M._..X].b.P.R.4.d.E.",
"..o.O.v Y B ] ] n b V A E.`.{.S !.}.`.v.h.g.A T v v n v B *.=.5.6.j.j.,.<.Y Y M C.b h W C.Q W u i 2.u.x.v.x./.$XoXE.P.[ W C.W } ",
"Y Y n Q v A A A n Y b ] v.}.'.D Q.}.@X{.{.(.n.U v B G B B *.%.-.;.j.y.<.0.( M h M b M Z.D.Z.g o l 5.d.<.0.p.[.!.(.(.q./ ! m Y U ",
"i > ; :   6 q x 6 % % - - - D D x w y *.7 8 8 %   % 4 -   * = 3 5 2 4 3 & $ o o > $ > g p p X X 6 6 ; # m , w 8 8 s < u $ $ u u ",
"g u g u 1 2.n.(.u.t.7.=.A L i.v.2.t.p.n.>.] >.L >.f.v.c.=.$.$.5 *.-.5.1.5.T v g g v Y f i i z f h T z f h u H R z m ,.g v h W p ",
"g W Q m } q.g.r.h.7.n.`.t.<.a.d.[ R U _ C w._ v.T.T.Q. XV.j.j.5 *.j.6.q.P.C.W A.Z.Y g g Q W Q Q b v b b g Y C.A.Q v X.U m C.W # ",
"M C.D.Q Q F p.q.s.] d.(.b.0.q.h.s.h V >.J._ p.b.E.`.oXQ.B.m.l.6 +.5.x.9.^ A.C.! W W i h W m m m Y m Y g R I m Q m b z _ C.G.F.$ ",
"M Q M M p ] t.} U Y ^ 0.).a.X.<.s.T _ 0.3.E.E.E.5.).v.x.b.Q.u.@ c x.v.} ^ v I ! h Q i G b h A.W Q m h U ] 3.z E v g I A.C.A.! o ",
"D.W M b d b.h.E I v v 7./.g.<.d.T.4.V T f.W. X%X].x.I.2.7.3._ * $.f.W.s...I v m Y v l 5.>.U C.g I p F 3.b.T.W.R I 3.U W Z.M D.$ ",
"~ M p B i.(.8.Y M C A t.E.g.d.a.b.f.{ 9.~.+X=XR.4.<.4.] 4.z >.= x.b.<.<._ ) m v W Y ) 2.,.T v f g z l.m.x.'. XW.n.oX~.Y b U W $ ",
"M ~ M v b.`.b.3.k P 8.H a.q.q.Y.f.4.T ) a.Q.).a.m } Y ) >.2.<.s G 4.4.>.] >.Z W z z <.z T z F I I z k.Q.Q.|.&X#XOXoXXXT.<.b b $ ",
"g b a k M.'.n.7.7.o.T C 7.' a.,.f.s.Q U a.W.L.' W E v I 4.3.} u z s.>.1.2.1.3.,.4.a.4.Y z ) 1.,.>.=.5.v.T.|.=X<X@X<X[.[.[.0.h u ",
"i g F i._. X.XQ.T.Y h [ H 0.' [ [ ..R b Z Y.W.9.b Y v f [ _ <.< z f.3.2.p.v.W.v.p.b.p._ R $.5.x.l.i.%.d.d.(.=XOX2X;X>X=X@X@X].k ",
"u.~.h.V.Q.'.oXv.T.) V ) { ) g.<._ R I V <.M./.b.<.b z Z 4.L.R + ) _ p.i.k.Q.Q.i.2.} 4.>.L 1.6.j.l.m.l.a.{ s.OX@X;X#X-XXX-X>X=Xc ",
"n.}./..X|.'. XV. Xn.{ 8.^ s.} R 8.` b ) d./.).>.} 4.q.E.p._ R & f I { 5.x.l.x.d.3.] Y ) $XM.l.6.u.l.x./.t.E.(./.'..X%XXX@X*X%X#.",
"i.@XoX=X@X.X X'.`..XXXX.v d.w.R s.h.) K (.n.,.) v Q U E 4.p.>.+ p U ) 5.N.c.u.u.E ! I ) I.5.5.5.m.v.E.b.!.g.r.y.r.(.{.[.~.9.(.M.",
"K !.}.#X#X@XXX.X_.'. X!.[ h.f.~.W.~.L.t.t.u.y.t.Z T z b Y ] f.K k ] p.c.v.d.>.i.' Y M W 3.u.1.6.c.M.u.w.8.d.i.,.2.I.~.S.W ! { L ",
"w T.{.oX;X:XOX|._. X'.W.[ q.Y.4.W.T.v.'.W./.Q.,.] I ) W v Y ' c l 5.d.d.0.U C.R >.z v h A 3.2.5.u.6.x.d.f.2.2.%.r.~.O.Y W m Q $ ",
"F ].).{.=X;X'.B.E./.Q.U.8.8.P.q.8.T.b.(.E.b.a.r.5.%.) C.W C.v + %.x.Q.x.3.W M h Y Y C.W Z ] G F 1.y.c.v.I.d.%.1.[ e.E Y M Q ~ X ",
"9 , t S @.#.5 5 6 6 0 0 8 , , $ 0 r 0 t S S c * 7 + X : : X X . O 7 y r 4 o # X > p p u u < , , q t w 6 8 , % = 6 8 < : $ v a X ",
"p p ) t.N.[.M.h.t.,.7.' W v P < t.d.i.1.2.%.t.d.u.F v W M M h M F 3.k.6.5.F J g g v W g f s 9 , x z F A z k z z %.T._ v v C.I Y ",
"Q m N {.#X|.'.E.T.f.' ~ W Y Q # >.{.].s.7.9.8.d.h.[ n ! b M v v T %.5.B.m.x.>.A z W Q M U V b.* T W Q Q D.C.W z z a.E W C.C.C.v ",
"v B p./.oX.X{.}.!.g.9.~ ! Q Q # V g.P.s.Y.,.U [ >.P ! n M v b h Q z 5.x.v.x.x.x.p.I v u 3.I.f.= I C.! Z.H.W Q C.z 4.Q C.m Q v g ",
"B i.N.[.(././.&X=X].s.Q S.Y m # Y Y / W T ] ' T V H Y M h Z b z z 1.5.3.p.d.5.p.,.5.5.3.| 1.] ; g U Q C.C.W Y Q W C.W ! Q m W h ",
"B &.i.M.Q.z.(.].{.R.Z ~ n Q Q > ! C.A.W g b L C A C Y h F ,.[ Z G ,.<.I T ' ) ] ] 2.<.Q Q } _ X v C.Q A.C.g Q m p W Q m b h g h ",
"] h.m.V.V.'.XXn.!.!.I.^ M Q S.u U C.! M h U I I L H K K %.y.x.f.p.4.W Y Y M I b W _ K.F.! M M X : Y h ! C.Y b m Y Q Y m f z z b ",
"7.N.V.l.'.'.&X{.s.).$XO.M n S.> v Z.W ~ b W h U R %.2.%.r.k.(.E.>._ b I Q b M W W A.C.C.A.C.h o < W I v W h v Y v Q W h b W W _ ",
"7.'..X'.'._..X=X].&X&XS.M ~ Q : Y G.D.W W ! M h V G y.5.y.M.`.(.Y.,.! I Q Q Q A.A.F.W F.F.W W $ j E Y W g z ' Y m Q Y v b b v z ",
"d.'.OX=X=X+XoX$XoX;X}.o.n Q W > v Q C.M M M h M d 5.k.5.6.m.Q.E.Y.E W g ! Q Y A.C.A.W A.G.A.Q > f ' U h b z T z m v W W Z R g T ",
"i..X{.<X1X,X<X3X<X&X}.9.M ! W $ b M h v W Q M Q z 6.6.j.x.v.c.6.p.[ v I m W C.A.~ W W A.C.C.! # g z [ ] <.<.z H I V Q h m ) ] 3.",
"Q.[.[.=X<X;X>X2X&X}.}.' W ! b X b W A.b M h v p F 6.j.j.c.c.j.j.5.L z g E W C.W Q b U W C.C.W $ g b T Y.l.p.3.0.3.<.I k $.T.Q.v.",
"[.(.{.=X;X@X,X2X>X^.g.} n v M $ W W M g g h d G =.l.6.6.l.j.j.j.6.=.1.2.Q m m h f n h v W Y W X u h l 5.c.Q.E.[.^.f.p.<.p.T.|. X",
"`.`.oX=X}.:X2X2X-X].q.o.Z Y v X v W h I p.1.5.x.l.6.6.6.j.k.j.z.k.j.l.7.Y Y h Y b v z Q M h b X s K u.u.Q./.@XQ.(.(.T.d.Q. X(.Q.",
"E.!.XXoX].}.;X,X-X~.!.g.8.b v # z h z u.d.T.l.x.l.l.j.j.k.z.z.z.k.c.N.5.T g _ Y g F 1._ C v h . F t.m.M.M./.E.[.%X`.W.(.|. XE.Q.",
"g.a.h.(.}.{.-X=XoX&XoX~.!.T A q 5.b.T._.Q.p.u.l.m.z.l.l.B.B.z.z.z.z.l.c.x.d.4.) >.J 2.1.r.>.%.@ G 5.M.V.'..XoX}.+X.XE.Q.`.E.a.Y.",
"$ , , w - * #.K t D D D 6 q 6 0 c c y c 8 O 3 2 5 e 0 y e 5 5 5 e 5 5 0 0 7 4 7 e 4 4 3 3 4 3 O * 4 3 0 r r @.i./.k.e q 7 7 + & "
};
