/* XPM */
static char *_c94287ae793472fa7c71e69e801f1c0WksZLd56pcSBpv5p[] = {
/* columns rows colors chars-per-pixel */
"64 64 238 2 ",
"   c #262B1E",
".  c #2C361E",
"X  c #292825",
"o  c #2A2C24",
"O  c #2D2C2B",
"+  c #342E2B",
"@  c #2D3325",
"#  c #2E3B24",
"$  c #2D342B",
"%  c #2F3B2B",
"&  c #313426",
"*  c #313B26",
"=  c #32342D",
"-  c #333B2C",
";  c #393A2E",
":  c #2F3532",
">  c #343433",
",  c #353B33",
"<  c #3A3C34",
"1  c #3B3738",
"2  c #3D3C3A",
"3  c #403E36",
"4  c #413E3D",
"5  c #344528",
"6  c #36422D",
"7  c #39432D",
"8  c #3C4E2E",
"9  c #395724",
"0  c #364233",
"q  c #3B4334",
"w  c #3D4A35",
"e  c #3C4936",
"r  c #3D443A",
"t  c #3E5335",
"y  c #414432",
"u  c #414A35",
"i  c #43443C",
"p  c #434B3C",
"a  c #494A3D",
"s  c #435435",
"d  c #475735",
"f  c #45523C",
"g  c #4A543D",
"h  c #465B3C",
"j  c #4C5A3D",
"k  c #50593E",
"l  c #496736",
"z  c #4C623D",
"x  c #52663D",
"c  c #4E7835",
"v  c #52783B",
"b  c #3F3640",
"n  c #483E43",
"m  c #3F4041",
"M  c #454542",
"N  c #4A4645",
"B  c #464B42",
"V  c #4B4C44",
"C  c #4B464A",
"Z  c #4D4C4A",
"A  c #514D47",
"S  c #524D4C",
"D  c #465341",
"F  c #4C5344",
"G  c #475B40",
"H  c #4D5A44",
"J  c #4E524A",
"K  c #4E5949",
"L  c #515346",
"P  c #525B45",
"I  c #52544C",
"U  c #5A554E",
"Y  c #545B4B",
"T  c #595C4D",
"R  c #484850",
"E  c #574F51",
"W  c #555552",
"Q  c #5A5553",
"!  c #555A52",
"~  c #5B5C54",
"^  c #595358",
"/  c #5E5C59",
"(  c #615E56",
")  c #61565F",
"_  c #625E5B",
"`  c #4C6243",
"'  c #4F6544",
"]  c #536444",
"[  c #596546",
"{  c #546A44",
"}  c #596C46",
"|  c #55634B",
" . c #5A644C",
".. c #566A49",
"X. c #5A6B4C",
"o. c #567745",
"O. c #5B7445",
"+. c #5A7943",
"@. c #54744A",
"#. c #5D734C",
"$. c #5D7B4D",
"%. c #556252",
"&. c #5D6354",
"*. c #5D6B52",
"=. c #5E6359",
"-. c #5E6C59",
";. c #5C7353",
":. c #5E7957",
">. c #61694F",
",. c #62734D",
"<. c #637B4F",
"1. c #616555",
"2. c #626C55",
"3. c #63635C",
"4. c #69655D",
"5. c #646B5B",
"6. c #696C5D",
"7. c #637454",
"8. c #637C54",
"9. c #697D55",
"0. c #64725C",
"q. c #6A735D",
"w. c #657B5C",
"e. c #6A7C5D",
"r. c #666561",
"t. c #6A6563",
"y. c #666A62",
"u. c #6B6C64",
"i. c #6F6569",
"p. c #6D6D69",
"a. c #716D66",
"s. c #726D6B",
"d. c #786F6B",
"f. c #667362",
"g. c #6C7364",
"h. c #657A66",
"j. c #6C7B63",
"k. c #6E7169",
"l. c #6F7A6A",
"z. c #717366",
"x. c #727C65",
"c. c #787D63",
"v. c #73736B",
"b. c #79756E",
"n. c #747B6B",
"m. c #797B6E",
"M. c #6C7972",
"N. c #767371",
"B. c #7A7573",
"V. c #767C72",
"C. c #7C7C73",
"Z. c #7D7D7A",
"A. c #827D78",
"S. c #827D7C",
"D. c #53853D",
"F. c #548244",
"G. c #5D834D",
"H. c #5A8948",
"J. c #5D944E",
"K. c #5E8153",
"L. c #5C8F50",
"P. c #5B9851",
"I. c #62844A",
"U. c #67924B",
"Y. c #648254",
"T. c #688457",
"R. c #648A55",
"E. c #65845B",
"W. c #6B835C",
"Q. c #648A5A",
"!. c #6A8C5C",
"~. c #71825C",
"^. c #669956",
"/. c #6B935D",
"(. c #73915D",
"). c #5DA550",
"_. c #6D8363",
"`. c #6B8567",
"'. c #6D8B63",
"]. c #728365",
"[. c #7A8467",
"{. c #728B65",
"}. c #74836B",
"|. c #79836D",
" X c #758B6B",
".X c #798B6E",
"XX c #6D9362",
"oX c #6C9765",
"OX c #749265",
"+X c #75936A",
"@X c #7B926D",
"#X c #7B9B6B",
"$X c #768471",
"%X c #7B8473",
"&X c #778A73",
"*X c #7B8C73",
"=X c #7E827A",
"-X c #7D8A79",
";X c #6D9175",
":X c #7B9473",
">X c #7B9775",
",X c #7CA06D",
"<X c #7DA476",
"1X c #81916D",
"2X c #828476",
"3X c #818B76",
"4X c #83837C",
"5X c #88837B",
"6X c #838C7C",
"7X c #898C7D",
"8X c #829A74",
"9X c #84947B",
"0X c #89927C",
"qX c #839B7B",
"wX c #849879",
"eX c #87A57C",
"rX c #857E82",
"tX c #858582",
"yX c #898582",
"uX c #878A83",
"iX c #8B8C84",
"pX c #8E8C8A",
"aX c #908A82",
"sX c #918C8B",
"dX c #8B9483",
"fX c #899484",
"gX c #8D9B83",
"hX c #919486",
"jX c #93948B",
"kX c #929B88",
"lX c #908C91",
"zX c #969491",
"xX c #9A9B95",
"cX c #8AA085",
"vX c #94A28B",
"bX c #9AAB94",
"nX c #A5A49D",
"mX c #A8A9A2",
/* pixels */
"B./ L B Z lXyXpXyXxXxXnXZ._ s.v.yXv.t.v.t.^ C + > W J 4.t.d.d.t.N.4.S M S 2 M 2 o rXsX2XtXt.2 > 2 _ lXZ.yXtXyXyXxXyXJ r / C Z S ",
"t.-.0 V Z.Z.yX4Xx.}.:X9XN.4.&./ 4.t.C.f.&./ Q 4 1 1 B &.1.a.A.i.3.! Z B I 1 2 X q 4XA.q.r.i M Z.rXzXrXsXpX3X[.{._.y.I < 1 F L V ",
"^ - ! tXv.=Xk.z.2.e..Xx.g.T H / / r.C.v.L F U B Z 2 : 5.1.u.u.~ &.%.I r B a 2   d %XF - 3.yXtXv.6.2.u.e.,.{.8.{.$.{ ~ U ! = p M ",
"O L m.n.B.p.S.z.v.g.%X~.} P  ._ N.u.B.C.~ i Y Z n Z a , u.v.z.2.H | B r H V @ r | fX Xn.%X-Xv.y.>.2.x.7.} 8.].q.' l V ~ L J , > ",
"> =X7X*.2XC.4.z.&.V.pX[ P L u.i.t.m.4.k.~ U N i B f j p B m.v.{ X. .B I K - i 3XiXkX!.>X7X:.<.#.X.,.{ 7.X.&.m.2.z c h z ' K M > ",
"O pX|.h.5X=.1.5.g.k.u.f g W r._ q.} { q.&.&.4.A n B H J % &.u.*.g.&.W F & 7 &.2X6X*X#XK.x.`.9.O.X.I.#.*.&.u.C.&.z v 0 i i / V M ",
"O 2 g.-XS.5.6.2.5.I G z z | J 5.{ O.O.X.5.5.C I r G l t 7 0 u p ; - , r e w F s.n.w.Y.*X7Xl.7XZ.$.8.z.s.z.v.n.X...8 0 a ! J ! B ",
"M rXt.=.[ 1.4.4.=.E F P H P -.%.| L V =.v.Y ~ W Z H H @ 6 [ W.|. X>Xw._.e. .e v.b.x.e.7.x..X]..Xq.2.z.A.u.4.g.X.o.d p B H ! W n ",
"uX4XV.m.g.T i j K V V U V L u.4.3.L p u.p._ _ Q I F q f 0X.Xe.0XfX*XeXT.@.@.K 2.C.u.1.8.$.;.6X7X].X.3.4.~ ~ _ c.j G V B ! W W X ",
"I |.V.v.k.6.7.j - , K B 1.&.r.4.p.a K p.s.i._ Z Y a f |.gX*X XkXwX;XQ.$.@.E.h.e 5.q.|.7.:.e.x.q.2.[ V S J Y &.q...Y M C W M b p.",
"V j -.g.~ [ 8.} %.^ K % F T 3.p.) a r.y.t.t._ C Z # wX0X0X0.#.*X&X X:.5.w.;.v.& 7..XW.:X2.%X4._ T U 4 E / ~ k P *.&.f V E Z B B.",
"F q.f.=.~ *.X.2.u.=.I ! 0 < p P &.H 3.3.y.~ W N , j.Y.T.|.5.X. X'._.w.-.P J V < x.R.Y.w.u.S./ / ! M W p.&.3.a L 7.$.F Z W $ u.N.",
"Y z.n.l.f.-.~ J Q ^ I p 0 r B m , 5 B 4.| ~ U C 0 -X8.G.-.r.gXj.}.;.G w M Z a e 1.8.8.>.6.6.C J Q 4.4.j.&.T V V *.$.I N C 6 fXs.",
"! g.j.$Xf.-.! =.Q W / r 0.W.E.&X%X0.I $ 0 D J - ;.qXj.#.U 4.q.g.5.V a D B C @ f & ~ 2.2.} | Y L ^ t./ ;.| P P p j 2.v.M $ h n.Z.",
"4.B.m.1.T =.K V ! V t h.8.{.9X6X;.| *.5.u.L i u }.e.X.3._ 4.B.t.L / g G H - #.e.F p / q.X.[ { 7.5.6.4.3.U V ! i V s.J , Y D , uX",
"zXZ.z.5.Y 0 r J p w 8.+X#XoXW.0.Y G { #.v.U Y w -XX.Y ! I u.p.! A A Q r @ }.e.j.|.Y , g 7.e.{ +.2.&./ u./ L C u L ~ - $XV.S.C W ",
"_ i.5.>.L J p D ;.'. X@X;.@.&.*.| K [ ;.*. .H < ! K p ! p.4.p.4.4.i V - ].@.} 6.g.2.J 0 6 [ X.| &.4.U W V i A | H o e..Xj.q.a.2 ",
": Z / T H f ;.h.W..X}.8.#.%.! y.` ` [ -.*.T P y , p K / v.4.u.K M , f '.#.$.} #.} >.P P j = i p.3.Z V V a a Y J ; m.4Xh.x } 1.C ",
": I ^ 3.&.g.w. XE.`.<.f.*.O.] } x }  .z.6.2.*.| g ; J k.y.I $ 0 ! *Xj.e.Y.$.8.w.w.6.T P k p = F p F p 2 S U L ! iXp.j.;.,.&.~ ! ",
"r.) Q / 6.}.$X_.Y.E.{.].&X;.] { #.@. .u./ ~ F k.~ p ; = ! $X6X6X.X X*XqX'.I.I.9Xq.g.6.L &.U * $ g a H r r - j.dX-Xn.6XM.&.s.z.&.",
"B.N W E s.v.-Xx.X.e.2.e.0.0.X.} #.*.&.g.Y ~ V T / - u 6XkX6X5.n.q.8.XXoX!.T./.Q.:.3.1.4.Q  .V e u i  .7.}.bX0._.j.j.q.z.z.1.5.p.",
"/ 2 W Z s.5X6Xx.j.x.2.[ *.0.;.} } *.5.&.p i F [ P = f _.h.h.-.j.0.w.R.J.(.:X&XY.I.X.q.~ Y [ a w &.zXgX2X6X&X{. X].e.].6.4.&.&._ ",
"W C S =.( jX6XC.q.2.1. .H 7. .....7.u.*. .L ` { ] @ l.v.v.a.a.| Y 0.j.:.T.'.x.9.7...>.e.{ l T g 6XiX|.4X0XE.w.W.@Xg.1.( Z K g U ",
"M 2 Z _ 4 dXl.5.k.&.&.&.&.V &.| ..2.r.! } ..[ z / < xX4.s.a.v.2.4.B.j.8.c.| &.L 2.1.X.v c c | Y V.fX-Xj. .h.-X&Xw.5.X.V V f | H ",
"C Z ^ K < < 2.5.6.&. .1.&.U F T *.0.r.U K x F j = D jXs.p.U l.X.4.g.2.1.Y F i L p.u. .+.v s V / v.uXl.&.1.4.3.~ 5.H r Z M a K C ",
"Z M r , - < K H ^ ~ T T &.~ Q I 3.4.&.P f [ r p # g 4Xv.5.u.5...&.y. .L ( C L ~ 5.y.p.Y P ~ K &.3.5Xq.2.1.U L P | g F J < ! U L ",
"2 N.uX-X-X-XM i ^ Y  .X.&.=./ Y &.*.| w a j i & d 7.=.r < g P c H Y ,.P A V L / p.*.P j z [ ..{ e uX5.=.U a i Y ~ A V i M M W ! ",
"yXfX`.l.k.V.k.3.7 j ,.#.&.&.T P | G K J 4 i u H 8.$XhXhXq.2.y O.j ] { H p F &.-.5.T T Y g g Y Z , C.3.W V B P 7.q.S J i N , 3.jX",
"tXn.}.-.&X-X2XN.Y 7 | X.2.] F V B V B r ; s ;.8.!.>X XT.2.e.P u [ j z g Y ! 1.&.*.&.V V L f f $ a s Y ! V V q.9.7.U Z + B.xXpX6X",
"%XN.v.0.-.v.u._ i Y 7 F P H Y B < ; @ e X.8.{.OX#X{.!.$.X.2.} X.8 H P L T 6.2.Y P ,.j ] a | t `.j.F f J L ^ / 2.P - , tX=X-X6X4X",
"s.A.B.u.&./ ! S Y #.[ , $ p u = o O &.@X!.!.!.+X@X@XwX;.6.a.0.,.@.a q V a &.| P Q B J J K 8  X0.v.5., e J / / < 3.%XV.$X_.`.fXn.",
"S.u.t.z.T ~ Q _ Y ] T F p y.v.v.D p -X{./.!.!.:X X.X9Xg.4.p.5.&.*.n.K : p / U / I Z V 0 j $.8._.}.p.F - & r F %X7X%X$XiXI.'.%Xu.",
"b.A.Q p.J _ r.z.F K F B D m.v.5.i -.9X;.L.'.{.wX}.}.l.u.Q Y J ! r.v.3.h.< S A S V K t ;.+X<X+Xv %Xu.a t E.j.`._.9XjX].n.W.E.g.p.",
"b.A.4.~ Y Q L 3.! V M r &.-.w.0.Q n.*X:X,XQ.|.4Xn.n.q.&.Q Q =.4.a.v.&.y.F - u g 6 F &X}.*X:.~.;Xv.t.L 8 e.qXqX|.j.n.x.x.OXeX%X4.",
"u.! ! S S ! V / H Y w &.=.g.x.<.P %XfXwXE.*X-XC.3.X.| T P -./ q.l.g.4.u.F w u Y  X$XE.w.2. X;.g.0._ J 0 0XfX`.{.n.g.dXT.8.e.}.b.",
"! 3.S N 4.~ J V L P ; ~ &.g.7.{ p $Xn.g.0.%Xs.N.n.;.| H H { ~ C.5.v.p.3.V * f x.y.#.7.0.u.5.*.*.5._ &.L -X6X0.q.g.3X.X{.E.w.C.t.",
"Q &.~ p.3.! f K J - p 6 q w * 5 o f.n.}.m.v.3.v.s.7.[ &.X. .a.b.t.p.N.L U = e.0.| *.} 7.#.w.l.5.V 3.&.e.s }.*.g.n.dXN.jXA.5X/ r.",
"( 3.I Q S B f H o D x.cXwXx.3X;.e Y $X7.q.2.*.P Y 5.q.g. .z.S.s.z.B.N._ B - q.7.,.2.|.<.F.{.g.~ V ~ [ v h *.;.u.%XwX-Xl.6X2X/ r.",
"s.~ U < S V g * F qX X#XG.+X].+XW.G H [ z v H f k P e.X.x.a.C.2.} 1.u.a L = P *.,.2.%Xw.`.-X&.U N Z V x f p.v.6X4X6X5Xp.5.q.5.Z.",
"Q Z P ; F H # g @XR.H.F.D.R.R.U.v X.F q h x f u J 5.%Xg.T Y 3.2.#.q.0.H J o p e 7.w.n.%X}.m.L B V Z E U a I v.m.Z.Z.uX/ C.y.&.~ ",
"W L U F F . u ~.R.H.H.D.H.(./.R.0.,.5.B $ - M j 5. .v.P F I l.u.#.o.;.X.J @ n.K 6 t y.f.g.u.U W W ! |  .r r N.S.pXC.u.Q _ ~ &.A ",
"R U I V @ Y aXT.R.J.H.$.R.OXu.3.*.P K Y i # o.d F y.| D i U 5.6.[ #.v #.G 5 6X~.Y.#.e : < J K M ! F P V t w u.v.g.H a V K F / I ",
"V N i , q.%XyXE./.^.K.8.;.7.=.Q E B F Y e %X[.@.e.{ t Y W V ! ~ F [ O. .F ;. X$.F.D.;.! 3.a q o > # 5 8 2.2.p q p K a V K L Y / ",
"V o B j.e.@X XL.F.Q.&Xq.L &.T F Q U V C F -X:X@.w.j.-X2.< M p F Z f 2.Q @ e.e.(.F.v X.*.&.1.1., &. Xe.W.:X-X_._.5.0 o , F P J Z ",
"O 4X}.+X_.#X/.).P.'.9Xg.F ` { { G L i  .J 5.}.{ *.g.n.y.J , D f i < -   8 2X.XW.#.7.g.=.&.L # w.V.g.#X/.+Xh.'.8.>.>.r.1.V $ J = ",
"yXn.9X8X#XoXP.).^.'.`.y.I &. .x o.7.*.f J 0 5.3.&.S.v.Y $ p e K ~ f.5.u 7 6.2.] H / &.5.] , 5.e.Y.n.`.Q.Y.;.}.'.e.2./  .P p < 1 ",
"tXn.*X[.eX/./.(.G.*X0.u.&.g.L U } q.-.j F 0 Y N.r.t.r.1 - 6XfX-XgXw.%X-X5.u u d H _ 3.&.` ` $XgXh.-.8.{.Q...g.[.e.v./ z.K B a 2 ",
"lX4X-X7X3X@XvX>X X|.x.2.V T Y L 1.u.~ T G h 0 W ~ I @ K iXkX}.dX6Xl.x.n.g.Y d 5 d  .5.r.I n.8.@.{ %.h.-XOX{ B.2.q.1.u.5.p K M p.",
"mXV.p.6X&Xn.}.G.R.:X Xt.D ] x { U U r W Z V r ; 5 # wX8XqXj.:.{.%Xq.y.u.p.1.j J ; - | &.a ].8.&.0.q.j.>X Xw.;.7.&.z.y.3.3.! S yX",
"zXZ.v.=X7X3X/.^.XX>Xw.3.Q ! P D P I V W ^ C F H J _.fXeX@X'.#.0.%.u.l.u.v.*.0.| H , % ! 5 W.#.k.5.u.X.&X{.3Xx.} &.4.r.v._ k.u.B.",
"tX4Xu.s.p.!.+X#X'.$X&.6.t.W S B J V Y ` ` z G = vX'.eX#X'.*X}.n.*.4._ 4.u.X.] L g i 0 - f Y.+.} =.p.5._.gX6Xm.q.3.N._ 4.L =.2.i ",
"U N.4.( g.6X0X].u.B.! ^ I D Z V a L T g | P d k @X).<XE.8.0. X{.$.Q.*.&Xg.u.a.Q Z p.H u * 9.+.` k.v.v.V.$Xn.c.C.z.z.t.=.K / 1.O ",
"> 7.H _ 3.0.|.q.&.&.2.3.F %.2 a Y L T H g ' 8 w.cX^.U.#.;.g.j.].-X9XXX'..X].n.6.0.3.Y d * [.7.T N.Z.s.A.&.L U 5.z.1.v.&.! / q r ",
"o 8 H =.r.v.4.1.1.| X.X.T =.W P G V P U H F # /.H.K.E.w.q.x.5.#.{.{.Q.+X{.{.2. .P Y H h 5 2.&.a.p.4Xv.v.Q P Y Y | Y V ~ P L  .= ",
"< q s g I Q _ 4.| H 3.5.b.t./ P H J L U L 4 u #XH.8.T.*.&.u.u.z.7X&XeXW.9.7.5.Y F p d h 8 w.q.z.g.6.6.^ ! K | D &.Y ^ L Y Y g X ",
"%X}.5.< 1 W U ~ U &.u.u./ 3.~ J W h T V P * x D.U.{.g.4.u.p.z.iXn.$XwX{.e.T T V M V L W B v.a.yX%X5._ ^ r.g.0.&.5.g.T g { ] , rX",
"%X}.g.L 2 i V a a V u.C U V Z L ~ G f K % #.9 Y.Y.}.4.z./ &.C.dX2XC.V.B.4.3.Q 3 ! V W Z M 3.Z.yX3.V U / 3.n.N.t.6.Y I Q g 5 *XiX",
"%X&Xj.3.3.N , r r M A V i a I Z W L % X.Y.j.| $.7.5.4.3.U a.C.fXB._ y.t.u.3.C i f P p i $ f 2.} F M Y u.v.A.4.^ Q ~ W F # {.8.}.",
"%X-X}.[ &.j d D W O & & 2 0 , + = 6 k.j.$.T.7.H 0.4.t.u.p.u..X*Xn.p _ 3.1.L S N K V V $ g * *.T 2 ! ! t.3.2.Y F M W Y W 6 wXI..X",
"5Xz.*.| G P - x.fX6XzX4Xr.k.x.6X}.h -.M.j.;.*.V g.s.p./ s.z.e.,.,.p 3.! 3.L V N V V 0 D k.K ~ p B t.a.a.p.Q Y F V Z V a 0. XW.=X",
"zX( 2.P i i g c.J.F.+X XgX&X'.W. X X` &.5.=.=.2 u.N.=.3.B.m.].$.v ` J I / ! 3.i A , 0 $X=Xp.r Z M 3.*.*.*.F V r J E i - 6X>X|.lX",
"C.v.1.F i < ].~.T.>X{.eX>XfX9X$._.oX&XK =.! M $ yX=.| [ 4.B.q.v.v.3.M I L ! ! ! M o %XfXC./ O C M J K | | a a D H | - &.fX{.q.lX",
"v.3.A N V o 7XC.wX:.cXgXC.5X=Xl. XfXiXV.B : O 1 Z.5. .] 4.N.%Xp.v.t.W ^ M 2 W r 2 > xXpXu./ 2 Z / S Z U p D i , & * e %XiXf.5.r.",
"s.^ A / n rXsXsXfXvXiXiXi.s._ s.tXS.pX6X=.Z 1 + s._ ! L p.p.A.4.p.4./ C M M N 2 O =.pXuX4Xv.Z b W M $ O - =.tXp.s.V u iX=X=.~ Q "
};
