/* XPM */
static char *abd5f3ac37a8417bf5a96776c59e96cdY7Mv9MAKX8jyt1qe[] = {
/* columns rows colors chars-per-pixel */
"64 64 170 2 ",
"   c #110F14",
".  c #151315",
"X  c #1A1516",
"o  c #1C1817",
"O  c #15141B",
"+  c #1A161B",
"@  c #17181E",
"#  c #1C191C",
"$  c #201A16",
"%  c #211C1D",
"&  c #25211F",
"*  c #28211E",
"=  c #151521",
"-  c #191720",
";  c #161923",
":  c #1C1B22",
">  c #1C1E29",
",  c #211D22",
"<  c #211F28",
"1  c #1E2126",
"2  c #1D222C",
"3  c #1D2632",
"4  c #1E2835",
"5  c #1D2738",
"6  c #1F2939",
"7  c #242224",
"8  c #292524",
"9  c #2D2926",
"0  c #23242B",
"q  c #29262A",
"w  c #26282E",
"e  c #2C2A2C",
"r  c #302A27",
"t  c #332E2C",
"y  c #35302D",
"u  c #222632",
"i  c #242A34",
"p  c #2B2D33",
"a  c #242C3A",
"s  c #292E3A",
"d  c #302F33",
"f  c #2D3136",
"g  c #26303D",
"h  c #2C323C",
"j  c #333235",
"k  c #3A3736",
"l  c #33343B",
"z  c #383639",
"x  c #35383E",
"c  c #3B3A3D",
"v  c #423E3E",
"b  c #252F40",
"n  c #263142",
"m  c #2C3442",
"M  c #2F3844",
"N  c #2F3849",
"B  c #323642",
"V  c #343A44",
"C  c #3B3D43",
"Z  c #303649",
"A  c #353C4A",
"S  c #3A3E49",
"D  c #423F44",
"F  c #3F4145",
"G  c #37404B",
"H  c #3D424B",
"J  c #3C4452",
"K  c #3F4954",
"L  c #424245",
"P  c #484747",
"I  c #42454C",
"U  c #49474A",
"Y  c #45484E",
"T  c #4B4B4D",
"R  c #424651",
"E  c #454A53",
"W  c #4A4C54",
"Q  c #464D59",
"!  c #4A4E5A",
"~  c #524F54",
"^  c #4C5056",
"/  c #47505D",
"(  c #4C525C",
")  c #525355",
"_  c #53555B",
"`  c #59565C",
"'  c #52585F",
"]  c #55585C",
"[  c #55585F",
"{  c #5A5A5C",
"}  c #4D5462",
"|  c #4F5965",
" . c #525660",
".. c #555A62",
"X. c #575B64",
"o. c #5B5D63",
"O. c #5D5D61",
"+. c #575C69",
"@. c #5B5F68",
"#. c #5B5E6A",
"$. c #5D6065",
"%. c #5D626B",
"&. c #626164",
"*. c #606268",
"=. c #63656C",
"-. c #69676B",
";. c #66696E",
":. c #6B6B6D",
">. c #706F6F",
",. c #636673",
"<. c #656A74",
"1. c #6C6D72",
"2. c #6D6E72",
"3. c #6B6C74",
"4. c #6C6E79",
"5. c #706F72",
"6. c #6E7174",
"7. c #6D727B",
"8. c #727074",
"9. c #737275",
"0. c #797675",
"q. c #707378",
"w. c #75757B",
"e. c #79777A",
"r. c #74787D",
"t. c #7B7B7D",
"y. c #807E7C",
"u. c #747683",
"i. c #757A84",
"p. c #7D7D85",
"a. c #7D7F84",
"s. c #7F7D89",
"d. c #817E80",
"f. c #7C8086",
"g. c #838185",
"h. c #87868B",
"j. c #86858C",
"k. c #898788",
"l. c #89888F",
"z. c #8D8F93",
"x. c #8B8B94",
"c. c #8E8E99",
"v. c #8C9095",
"b. c #939296",
"n. c #94949C",
"m. c #9C9B9C",
"M. c #969BA7",
"N. c #9C9CA1",
"B. c #9FA1A6",
"V. c #9FA1AC",
"C. c #A1A5A8",
"Z. c #A4A4AB",
"A. c #ACABAE",
"S. c #A4A9B1",
"D. c #ABABB1",
"F. c #B2B2B7",
"G. c #B6B7BA",
"H. c #B9BABE",
"J. c #B7B8C6",
"K. c #BABAC2",
"L. c #C2C3CB",
"P. c #CAC9CF",
"I. c #C9CAD2",
"U. c #D1D1D6",
"Y. c #D6D6DB",
"T. c #DDDCE1",
"R. c #E0E1E6",
"E. c #E7E7ED",
"W. c #F3F3F4",
"Q. c #FDFDFD",
/* pixels */
"f <.W @.M.;.h e , + + i l 3 u @ o @ : @ . . o . o , r o X o 9 # K 6.r...( e @ @ I h 0 O @ : # O O + + ../ p 1 2 2 3 w 4 i i 6.h ",
"5.$...W ' i.7 $.q # u s a u 1 h i Z # + . O > o + > o o o X & x G x G.f.E & # o k m m 0 + o o 7 , # 8 q f o @ i 3 4 3 i x %.f.m.",
"f.l h.*.r.H.C 1 < 7 : o o + + + o + C p + # O 2 E R X # % o 7 X + X X o q # % 7 h % + # # @ @ + + + 8 8 # o @ g w i 4 4 C v.' C.",
"] G.( 2.;.B.L w W S - 8 L w o @ + o + % o + O , e e z 9 9 o X o X X % T 2.h.l j p 8 7 # o # @ + # # # , 7 o o j a f 2 2 L R ^ 0.",
"' ;.;.O.6.: w ;.E H e # + 7 O.8.q , + # # % # 9 t 7 o i 2 0 7 1 g f >.>.t.x f e 2 a p p < # # - - # : > q 7 & 8 8 8 & % X o o Y ",
"o d $.q j p x H 6.0.6.# O 1 1 j O.3.,.z : - # d 2 # # g a f c H 9 w P >.l > 7 2 $.l G p.O - % + O ; # # 0 i y 8 8 9 * * & & & # ",
"o o o 7 v x p / _ ..;.j : # O O - z 5.,.E R > u O # i a g f &.L L w & X % % i { ` C + d # O O # + # : # 7 : > o & & & * 7 & 8 o ",
"p x l s o o # H E E ) ) # O O . O = O m D W O O : ; h 0 o @ >.0 p f f # e 4 { &.:...- + p I + # O > + : + o 7 . 2 2 1 2 3 T c 2 ",
"W ) u A , $ + O @ 7 o 7 # @ h o # O - : !  .> > 6 6 i 7 7 o ^ a 0.-.T w 1 g H ] ) ^ 0.^ 0 - + < = O + # @ o o . 1 2 w 1 i w ) f ",
"p V A f p   z $ . X % K h O O @ # = - = s S + s a n f p + 7 % l t.y.y $ e o x F V y.0.;...D u s O O = + @ 7 o . y w w w f T i i ",
"N.8.( Y X.8 -.m.1 @ 2 4 S + @ O O O @ : < < + 0 ; ; u h f e o q E o o o 8 F f i x y.$.;.=.a q # O O : @ . + # o . 9 . . o & o & ",
"o w H Q i.q + @ o % X # + @ @ 2 > - - < : < + O g 2 6 f 1 + + + &     o . T E 2 6.$.H 9 , q S = O - : + # + 7 y & * o o 8 $ o . ",
"@ + J Q L.B O O O p + # + : # : < < > O + G 0 . 4 6 6 C e # X o o o . o . 8 w f f ) =.=.c U p < = O O = # @ # y & & * * 8 o o o ",
"o + i ( ,.! . = O , f f + # + # O o o O 1 w q + @ 6 a @ # # % o o e o . . o o o $ o * e k E d = ; O + + # : .   # 8 8 8 & @ o @ ",
"# # o S d.Q + + O h > @.u.D + : i 3 a a a m : %   1 w O # % 7 # o 8 9 & . o o o o $ % % o w 0 O = = - : @ o . o @ o X @ X @ @ o ",
"O + o + S ! < , < = O s d ; u h s m a 6 a m W 7 1 + . @ o : o 7 H y 9 o . o o @ X # o 1 I l l I l ; # + 1 o @ @ o @ @ o @ o . @ ",
"@ + + + + G W + , @ - O = a A B i 3 4 i a S ( # % o o - m N a E 7 @ + 9 d % o ~ < d E E B x.p < E  .G - - - + - + + # + + + , + ",
"# . + o o + Z r , < , p = : s s ; a f E m Z Y h o - # 2 1 0 o ` O @ o   . p x e , + < D D d , , O ; } } u < q u < - - - + . % % ",
"> # : o o + > C < u D V < u s , I C m B K J G S . o # 8 8 # # 8 # @ @ . + < q 7 , + + % m q u , O = = > < - < < B Z Z m E 3 u > ",
"u i :._ > V ..S A u 3 > : - : : + p G R S u V A p % 8 , 8 8 8 8 % 7 f 7 % + p *.l < - + - < - - : : q 0 Z - d - < Z Z D u 3 3 3 ",
"i w % X l S ^ V < < D < + # + + @ o + # o # o p l > 1 > 0 0 2 u e 2 i r o + + # z d % + , < i a b B - = Z d.= s h n a 6 b u 5 3 ",
"X 7 e e p l I C d < , @.S u > % o o + o @ o 9 q , o 2 2 u u i u i i p j , o + + < , - < b a u - - , = b 5 E.D < b p a u a i a > ",
"o w f u 0 q 7 l l < , p S m a a C q + + # 2 a ( + X + O > 2 u u C i i E D o + , q 2 5 a u Z < u E b m 5 n u.s.- # u a 2 2 _ ~ e ",
") % # u a W # # p l 2 < h m b Z R Z.C.> 2 4 L p + . +   . h T 3 4 I h g E 0 ` - u > > > D , - = m a A Q 5 u.J.D.O + # O # E :.8.",
"7 2 c i w @ # h j E i 0 q Z D < # A h s p , d.,.B % %   . , < a 2 h M V M h A.m > = O : , , , = n D } } b S u.T.-.# O 7 % $ $ + ",
"1 2 . % X 8 8 % 7 0 : + - , - - # # 7 + , + > #.&., $ + . . p % o h C A V h o a b s @ + O , , a n A +.S b b d.,.c.= % + + . X $ ",
"i 2 # o o 9 8 @ R < m h b < B < + + < : , + p B ,.< + + o $ o $ o 2 h V V h h h 0 + j < % , u b Z Z ! ! Z m +.} 4.w.< % + X . % ",
"9 o o o 9 # . X q = > s b B m < : : + + , < - @ , % , % . + + o o o o w # # F z > o # p p m b b Z n Z b 5 > @.U.N.J.p % X X + d ",
"o o $ o o X @ j ~ @ + , , < - q < = - + , , < O < + $ .   + . . o o o X + 7 F L l f W C i Z Z D a s a b b , - -.s._ 2.o $ O . X ",
"f ) t.i x i x K =. .+ % , , , - p % , - : = 0 > p , +   . + + o . o X & . f f l D p ) O.&.+ - p i 5 3 < < - - - = I :.&.O . + $ ",
"w ;. .C H K K G J @.# , - , , c.u.E , u a A Q.V p < . + + o + o . X X 9 p f f l L c { _ A <.% + + % < O . O - # - O > &.e 3 > s ",
"o O F H ^ ( ( Q ! ,.C , - % x.4.! - u u a L n.J.d , + + # + + o o o . & L L f P W ) _ ( ` y.-., + + + @ , - + , O # o @ z i u q ",
"%.g W V U W O.@.u.W.D.@ # o #.< % u b s + , < U @.L # # @ # # # o o & v f X & o w 7 E R $.9.d.w.+ + + + @ + # , + % : > k 8 + 2 ",
"E { G H ! 9.5.w.u.Z.w.` # % % < #.u , # - # # : : g 3 3 4 2 2 3 3 2 i 9 o o X % 7 8 7 ^ =.e.g.0.t.% + + O O + , u a 6 a c e a h ",
"p e 7 <.+ 5.q.p.+.N.T.I.< + < 0 u S D s > + # q s l m n g 4 i 6 i w h 9 o o X % X + o - E g.9.h.k.( + O 0 a b s l < - # e o 9 - ",
"8 i W F : 7 ) ) X.J.Q.Z.B u 3 u > < u 3 u D B h 0 S G a g 6 i 2 a v & j 8 & & % + o + + # 6.w.e.y.B Y i E Q Q 7 , - + + f T 8 9 ",
"8 i & & + + # o + < v d l > @ o . O O O # + < R O < m a a 3 a a K 8 $ T P o o X . . . o + T I.R.) ! z # x ( S Z ` O : z l ^ E 8 ",
"y o & & 8 @ + + - + < s @ O + + + + % O # o # =.  . p i 4 4 u g $ % 8 7 ] ] o X o . X % o + C.{ q z.: # + + # q # # m l i h 9.;.",
"8 7 i 3 2 s u a u s q + O . @ # s C p . + o , h . + o # 0 3 3 8 r $ i .  .t.t.k o + o + + # + f E C H O # + O O - l h 0 q g q q ",
"7 % o a a a 4 u a #.C < @ @ o @ , < ! 5.+ O O p + o @ % X # % 9 % % @ . :.;.6.r.x o @ # + + + e ..C o., 0 0 + u b S 0 r > o < 7 ",
"# 7 O % u 3 2 3 h F.B.o # # % % + $ + o # : l B C + + . o o 9 % o . X . v ' ;.k.^ o.+ + + # + 7 =.W ( . x # 2 5 > 3 u a = O O + ",
"( g # 8 p # - ; Y w./ % f @ e % o < e / O.i E p # *.o o . @ o , & + . o + + + T _ J A.7 + + # # t.! a.0 + i g g 3 5 s u , ( ~ l ",
"7.f u h o : # 0 w K ^ # ; 2 F f p A l S 3.# q + + L +.o o @ o % w i 1 . + X O + + + g $.z # # o 7 ( 3.@ a m 3 2 3 a a Z ! , < R ",
"S.f o # o o # o @ f / i a a V 6.O p 0 B l # o o + + k.! . o + 8 w f o @ X . + + # # + # # p + + o T L g p 2 3 3 a 5 u , < T #.u.",
"- 1 o o o . o . o % K 1 g g S 8.T + : < w # o O @ - I 3.O.+ 8 0 o @ @ . o o + # : : 0 p b n a h j o 7 l i 2 3 3 u > < - < D - - ",
"# # # o o @ % X X . P o i h G { k.# l u # : C a m S s V.F.s 2 ..f 1 X X + @ 1 a a ) h u m m s h u 3 w j u i 3 6 = d = q - C O , ",
"Z f i w 1 o X X X X 1 @ V T ' h p.5.# , > < ! a < < , 0 q l i  .;.;.] 1 G g 4 a n =.R B > s A g 3 3 h $ q 2 0 o + < , , + , - , ",
"g a a i 2 2 3 0 P P 1 X z Y V H 7 q S A.D @ - # - O , e p B = = @ | %.T q i g a E ,.A u > Z s a 4 o V * e o 8 % # # + - + , < a ",
"h 6 3 3 2 4 i f 0._ f f * o & o u h c % # f + - O - p q s l = = 0 > > ! < , < R Q =.+.3 3 3 s s - 7 # 9 9 7 o @ o o + o @ 0 i a ",
"4 4 a i 4 x f i _ 3 # @ o o o z # o 7 , j ,.q > u w , B m Z - > s l 0 S d + O . W +.} s n a a : o o . S t @ o o @ ; > > s > > > ",
". > 3 a 2 a f Y & X # p F L & . @ o 8 + - W 0 0 - , q B m > > u > >  .@.q o + + % q s b a 4 0 o o # u 2 o w I V E i 4 R ,.-   o ",
"o X @ g E 7 o r $ X f f w { ] h % 0 p g i ( X.0 , , a b b B = = O > E _ S U > u # + + 0 a ; + 8 . % a f . o { _ B a i p %.=.+ , ",
"O + + + 7 o # e o e e 9 & w v ..H 7 V i a { J 6 B W u a N / R u ; s Q X.a w.% + + + # 8 7 # o . o i l $.w f h i W W D q , | h - ",
"+ . + + # + 7 8 # . 9 9 & X # { b.Y o - 1 ) G x @.U + + - D @.h u = u 7.= < p + o % + % , # + o # c G 7 k h 1 : , L.P.c.h.D = @ ",
"% O + o : , o 0 4 1 9 7 o o j ..W.N.# o X @ # 7 _ R < + + O = O - > h K. .=.< + . + . , o q % # 0 j v o 9 h 3 o + O n.K.J.L.( d ",
"O # - : # 7 + > 4 a 1 o @ # o X 8 v e X o o o X , ! + + + # + - @ # o < N.W -.u % % % $ & o 8 9 h @ x 8 @ 8 7 o + O # n.E.Y.y.m ",
"d < < - , u - O : @ % + % + + + o o G G 2 e % o . # u u D h q : : + + + + 0 =.l., o % o + + w 1 X o X 7 < > o + + + % - D d.c.d.",
"! D - , 2 5 a b 0 + + , + + O . X f h 3 i y.) F c 0 < p -.5. .S s m p s u 0 : p < o + + > 3 i 3 3 l j p q < o + O O + - + - - B ",
"< 5 B u b b n < : - - O - X % O f i 3 2 :.m.p { _ > I s a C I s B I s m #.S m +.a 7 3 i 2 2 i 2 i l P f 7 X . : O - - + - - % - ",
"s a b d.- = < - , O = % % - + j x i 3 i 8.G h =.@.: C s a E h I S C B S Z a l s E w O ; 3 S 4 u h F { m 7 o o @ O + - - + < < B ",
"m A s Z D < < - - : , - - $ q q f i f H H w f K Y o 7 a a ) m N B C Z D a i W p % O O     q u 5 a { _ x l % # o % % < s u > 5 b ",
"D u.< < D - - - , - , , o , d B g 7 $ X X % w f C o . a u W I h , - + = + O O Q < o . O - o # o 1 &.H G m d + : s B s s u 5 5 i ",
"4.~  .B , C < t q } ,.D @ s a i g 7 o X 1 X . 1 7 o . h u Z W C d - +   O + O : %.Z 3   O 1 # o o . @ F q C 3 B s B u 3 u 5 5 C ",
"Y.u.j.5.y.u.d < , , + = - a b % # . . i & X X O o 7 % 1 0 8 =.z d p C , + O = , %.u ; O O @ : h o @ o # d , : < u 0 p 5 s i u < "
};
