/* XPM */
static char *_4145a82286f457ca7484bfb44e21fb4iMrA9iHb2VxlabPS[] = {
/* columns rows colors chars-per-pixel */
"64 64 256 2 ",
"   c black",
".  c #010101",
"X  c #020202",
"o  c gray1",
"O  c #040404",
"+  c gray2",
"@  c #060606",
"#  c #070707",
"$  c gray3",
"%  c #090909",
"&  c gray4",
"*  c #0B0B0B",
"=  c #0C0C0C",
"-  c gray5",
";  c #0E0E0E",
":  c gray6",
">  c #101010",
",  c #111111",
"<  c gray7",
"1  c #131313",
"2  c gray8",
"3  c #151515",
"4  c #161616",
"5  c gray9",
"6  c #181818",
"7  c #191919",
"8  c gray10",
"9  c #1B1B1B",
"0  c gray11",
"q  c #1D1D1D",
"w  c #1E1E1E",
"e  c gray12",
"r  c #202020",
"t  c gray13",
"y  c #222222",
"u  c #232323",
"i  c gray14",
"p  c #252525",
"a  c gray15",
"s  c #272727",
"d  c #282828",
"f  c gray16",
"g  c #2A2A2A",
"h  c gray17",
"j  c #2C2C2C",
"k  c #2D2D2D",
"l  c gray18",
"z  c #2F2F2F",
"x  c gray19",
"c  c #313131",
"v  c #323232",
"b  c gray20",
"n  c #343434",
"m  c #353535",
"M  c gray21",
"N  c #373737",
"B  c gray22",
"V  c #393939",
"C  c #3A3A3A",
"Z  c gray23",
"A  c #3C3C3C",
"S  c gray24",
"D  c #3E3E3E",
"F  c #3F3F3F",
"G  c gray25",
"H  c #414141",
"J  c gray26",
"K  c #434343",
"L  c #444444",
"P  c gray27",
"I  c #464646",
"U  c gray28",
"Y  c #484848",
"T  c #494949",
"R  c gray29",
"E  c #4B4B4B",
"W  c #4C4C4C",
"Q  c gray30",
"!  c #4E4E4E",
"~  c gray31",
"^  c #505050",
"/  c #515151",
"(  c gray32",
")  c #535353",
"_  c gray33",
"`  c #555555",
"'  c #565656",
"]  c gray34",
"[  c #585858",
"{  c gray35",
"}  c #5A5A5A",
"|  c #5B5B5B",
" . c gray36",
".. c #5D5D5D",
"X. c gray37",
"o. c #5F5F5F",
"O. c #606060",
"+. c gray38",
"@. c #626262",
"#. c gray39",
"$. c #646464",
"%. c #656565",
"&. c gray40",
"*. c #676767",
"=. c #686868",
"-. c DimGray",
";. c #6A6A6A",
":. c gray42",
">. c #6C6C6C",
",. c #6D6D6D",
"<. c gray43",
"1. c #6F6F6F",
"2. c gray44",
"3. c #717171",
"4. c #727272",
"5. c gray45",
"6. c #747474",
"7. c gray46",
"8. c #767676",
"9. c #777777",
"0. c gray47",
"q. c #797979",
"w. c gray48",
"e. c #7B7B7B",
"r. c #7C7C7C",
"t. c gray49",
"y. c #7E7E7E",
"u. c gray50",
"i. c #808080",
"p. c #818181",
"a. c gray51",
"s. c #838383",
"d. c #848484",
"f. c gray52",
"g. c #868686",
"h. c gray53",
"j. c #888888",
"k. c #898989",
"l. c gray54",
"z. c #8B8B8B",
"x. c gray55",
"c. c #8D8D8D",
"v. c #8E8E8E",
"b. c gray56",
"n. c #909090",
"m. c gray57",
"M. c #929292",
"N. c #939393",
"B. c gray58",
"V. c #959595",
"C. c gray59",
"Z. c #979797",
"A. c #989898",
"S. c gray60",
"D. c #9A9A9A",
"F. c #9B9B9B",
"G. c gray61",
"H. c #9D9D9D",
"J. c gray62",
"K. c #9F9F9F",
"L. c #A0A0A0",
"P. c gray63",
"I. c #A2A2A2",
"U. c gray64",
"Y. c #A4A4A4",
"T. c #A5A5A5",
"R. c gray65",
"E. c #A7A7A7",
"W. c gray66",
"Q. c #A9A9A9",
"!. c #AAAAAA",
"~. c gray67",
"^. c #ACACAC",
"/. c gray68",
"(. c #AEAEAE",
"). c #AFAFAF",
"_. c gray69",
"`. c #B1B1B1",
"'. c #B2B2B2",
"]. c gray70",
"[. c #B4B4B4",
"{. c gray71",
"}. c #B6B6B6",
"|. c #B7B7B7",
" X c gray72",
".X c #B9B9B9",
"XX c gray73",
"oX c #BBBBBB",
"OX c #BCBCBC",
"+X c gray74",
"@X c gray",
"#X c gray75",
"$X c #C0C0C0",
"%X c #C1C1C1",
"&X c gray76",
"*X c #C3C3C3",
"=X c gray77",
"-X c #C5C5C5",
";X c #C6C6C6",
":X c gray78",
">X c #C8C8C8",
",X c gray79",
"<X c #CACACA",
"1X c #CBCBCB",
"2X c gray80",
"3X c #CDCDCD",
"4X c #CECECE",
"5X c gray81",
"6X c #D0D0D0",
"7X c gray82",
"8X c #D2D2D2",
"9X c LightGray",
"0X c gray83",
"qX c #D5D5D5",
"wX c gray84",
"eX c #D7D7D7",
"rX c #D8D8D8",
"tX c gray85",
"yX c #DADADA",
"uX c gray86",
"iX c gainsboro",
"pX c #DDDDDD",
"aX c gray87",
"sX c #DFDFDF",
"dX c gray88",
"fX c #E1E1E1",
"gX c #E2E2E2",
"hX c gray89",
"jX c #E4E4E4",
"kX c gray90",
"lX c #E6E6E6",
"zX c #E7E7E7",
"xX c gray91",
"cX c #E9E9E9",
"vX c #EAEAEA",
"bX c gray92",
"nX c #ECECEC",
"mX c gray93",
"MX c #EEEEEE",
"NX c #EFEFEF",
"BX c gray94",
"VX c #F1F1F1",
"CX c gray95",
"ZX c #F3F3F3",
"AX c #F4F4F4",
"SX c gray96",
"DX c #F6F6F6",
"FX c gray97",
"GX c #F8F8F8",
"HX c #F9F9F9",
"JX c gray98",
"KX c #FBFBFB",
"LX c gray99",
"PX c #FDFDFD",
"IX c #FEFEFE",
"UX c white",
/* pixels */
"] X.X.q... .7.8.N.U.i.z.e.&.5.g.M.z.z.u.2.o./ ] F D K _ %.$.o.r [ ' { ,.6.9.>.4.;.' O.&.@.....( #.0.) $.3.i.z.N.f.y.p.7.w.3.,.k ",
":.;.1.j.$.o.2.X.J.).T.).H.k.C.L.U.G.h.d.e.9.5.3.&.=.&.:.1.:.;.h +.:.4.0.9.0.4.1.1.$.,.<.:.O.O.+.&.r. .#.0.u.L.H.I.g.m.v.h.j.a.i ",
"-.:.5.8.@.&._ 7.m.(.~.}.W.P.Q.^.T.E.S.l.i.q.-.>.5.;.$.,.5.,.1.f +.1.2.0.9.-.@.;.%.;.2.&.O.%.| ,.0.p.<.>.w.2.c.M.n.y.b.h.r.f.z.k ",
"#.:.X.q.%.[ W a.A.!.`.^._.Y.T./.Q.R.v.z.u.O.X.' #.$.%.>.2.8.<.f o.,.6.2.%.2.2.7.e.r.o...{ 5.3.p.N.f.9.r.8.4.4.:.m.6.7.;.:.7.p.l ",
"[ =.;.s.e.-.i.f.L.L.~.R.H.K.B.Q.!.P.B.i.6.1.-.o.+.+.%.:.2.4.,.f o.;.<.2.=.5.w.9.M.v.>.O.8...| u.x.g.d.X.+.1.w.,.' =...&.<.=.-.p ",
"J :.i.9.7.N.C.A.P.L.I.F.h.C.n.S.T.Q.Z.j.u.#._ 2.2.,.*.;.3.4.1.f O.;.1.;.;.2.q.a.s.g.g.3.$._ $.1.q.i.a.3.>.-.t.@.E +.` 1.#.O.| 0 ",
"A =.*.4.7.y.I.v.G.J.J.K.z.p.b.K.).I.x.p.2.{ O.+.*.;.$.=.-.:.;.h O.>.<.,.*.5.w.k.v.v.c.0.X.X.w.C.M.N.c.w.O.7.k.X.~  .$.6.-...+.t ",
"E X.] 6.,.r.S.K.I.!.C.a.3.y.A.s.M.A.Y.j.z.y.q.5.<.o.' O.o.%.&.l #.&.%.=.*.;.N.N.x.c.g.n.y.g.v.B.j.r.=.o.O.%.:.&.6.[ 5.;.3.6.3.r ",
"U  .:.1.[ &.J.E.L.U.n.k.;.r.J.R.(.L.j.v.M.M.V.s.<.;.| ..+.%.&.g =.%.%.-.;.<.Z.d.z.B.v.m.K.C.N.x.A.A.>.-.9.6...^ #.+.` $.+.#.0.y ",
"' ) @.8.| d.Q.D.D.^.F.x.e.g.L.R.U.v.k.x.B.v.F.d.t.w.q.c.s.3.<.g $.,.=.%.<.s.G.d.h.F.D.K.M.s.I.D.K.K.4.O.:.3.R { d.#.I @.%.X.] i ",
"Y R $.w.s.Y.S.P.T.H.N.g.c.F.P./.Q.M.d.f.x.z.j.h.g.d.s.a.g.f.2.j +.0.@.=.>.j.c.u.z.n.Y.L.b.B.C.M.K.G.*.} :.$.D ' O.! ' o.o.` R n ",
"Q } X.X.p.Q.E.T./.D.F.C.n.L.N.N.L.V.J.l.u.h.w.8.6.p.g.h.a.b.L.x $.=.l.;.y.k.y.f.k.C.D.I.C.D.G.C.T.4.w.( O./ I X.+.L ' ,...R ..i ",
"H  .[ <.t.L./.^.E.N.I.Y.E.J.B.d.B.H.n.z.g.y.N.l.8.r.y.h.z.b.L.x 5.H.u.9.s.l.s.p.s.l.J.U.G.S.n.F.m.s.d.i.=.^ &.+.I ' +.] W Q ( f ",
"N O.-.| a.Y./.W.Y.S.F.r.l.h.k.s.M.f.z.k.g.f.A.c.4.f.e.g.k.i.Y.A s.!.v.i.8.i.w.f.j.C.m.L.N._.G.Y.p.w.w.8.*.,.5.} #.-.*.5.<.:.,.e ",
"' w.t.p.l.H.^.Q.[.F.g.n.a.r.3.V.D.v.`.z.z.L.V.h.e.r.a.d.w.j.V.F n.R.z.i.<.r.e.i.u.m.A.B.Q.W.J.N.V.i.-.o._ ,.+._ 1.3.$.,.<.@.` y ",
"i v z B A P R U Q U F Z g z d J ~ I / I D m M Z m c A v x D H G T T _ Q K Q Y n B J J j L _ / U L N f N a z p i S ~ ~ T [ E N 6 ",
"_ :.+...i.v.l.<.o.&.r.3.6.' @.M @.8.x.z.3.@...| ,.7.9.e.&.&.t.e.B.f.g.o.,.e.8.i.i.c.G.G.H.N.j.+.9...! X.Q { L L F U J T ` { [ T ",
"o.&.8.w.0.F.x.p.u.k.Z.a.6.*.1.x 4.z.Z.f.S.a.y.7.q.8.4.8.0.j.N.Z.M.7.,.p.x.f.c.b.D.L.B.Y.W.U.L.K 8.h.:.6.#.$.O.} +.] &.%.X.o.I *.",
"9.! >.| [ 7.1.y.n.b.b.f.e.<.o.s O.g.j.a.Z.A.e.t.,.-.;.:.$...f.C.n.-.3.r.n.M.z.Z.U.K.E.^.Q.Q.C.A 5.f.7.y.<.O.{ | <.' ;.*.3.W X.-.",
".. .E R W W u.<.5.d.e.a.g.+.p.A 6.d.V.i.k.C.p.8.*.<.%.] ) ..:.:.6.9.1.+.=.q.F.Z.V.Q.C.^.].z.u.A >.r.+.;.] ~ >.2.;.~ ] } ' U o.,.",
"] ) ,.} [ ..&.V.g.7.w.c.h.j.i.M } k.b.7.a.i.6.6.-.+.-.| _ X.X. .o.:.%.-.5.9.m.n.N.j.D.}.A.j.6.j 4.t.( } { | o.5.| X.~ ] @.@.^ @.",
"(  . .! ~ 6.0.g.>.4.8.j.h.v.q.z *.d.9.<.,.e.=.+.$.4.<.] { X...|  . .o.;.,.8.N.L.M.l.c.!.S.s.*.v ,.u.' { ] 2.1.` L { | o.*.} 1.4.",
"/ ! | / *.7.g.g.7.2.' 1.a.c.6.b | q.i.-.@.+.o...5.k.w.q.#...| +.o.X.$.;.3.0.k.h.3.4.e.C.k.,.2.b &.3.y.u.t.h.#.[ ' %. .X.-...[ 7.",
"U ( ! ) #.s.M.h.t. .! >.5.r.n.B ) 9.5.@.2. .] ^ } X.1.1.7.' `  .} o.&.6.r.1.g.f.' #.<.-.-.` X.i ` { 0.V.z.:.+.} s.M.g.4.<.! ..~ ",
"O.' ( ..4.v.Z.9.7.*.&.=.k.z.v.F X.p.q.;.p.%.R | ) { *.{ #.O...{  .&.-.w.8.3.5.$.!  .,.@.( ..X.k _ Y 3.i.9.O.*.*.t.m.g.5.*.#.5.-.",
"#.[ o.=.p.^.9.,.w.o.[ u.k.x.h.G 8.S.x.9.*.4.[ X.X.$.4.} U ' ..o.| *.q.t.t.5.<.[ 7.2.<.Q / >. .s I T ;.3.2.;.>.7.y.M.g.>.w.m.i.1.",
"r.6.<.n.E.y.%.o.-.o.#.9.d.j.n.S 3.M.z.1.O.@.| *.O.*.^ ( Q ] ' #.+.2.0.t.7.1.%.-.6.1.i.[  .| ] d A  .%.4.3.a.i.p.c.b.g.v.k.a.h.6.",
"f.t.u.I.u.1.+.o.y.>.O.#.;.N.I.S 2.m.l.7.:.1.$.X.{ | #.O.R } ` O.$.2.,.:.1.>.3.$.3.6.0.2.1.,.%.p H ` 1.,.y.i.>.e.9.b.M.b.l.0.u.g.",
"p.v.8.s.:.4. .=.3.O.#.%.e.f.N.L 8.n.h.0.*.-.] E { Q  .#.O.W { X.@.-.;.;.+.&.=...7. .O.=.$.;.#.D F &.2.-.1.<.0.d.N.v.e.e.g.:.4.s.",
":.:.3._ +.Q ......] ( [ y.f.N.K i.C.h.4.9.7.' | ` ^ | ) K ] } ..@.%.%.+.&.O.o.X.6.[ ^ $.8.*.=.B S O.&.2.8.1.d.H.D.p.w.#.#.5.#.%.",
"+.+.{ &.~ ` ] ] } o.` X.6.Z.k.L u.A.D.m.M.g.t.{ ^ ^ / Q ^ { [ [ | $.%.#.;.<.o.E +.` X.3.9.7.R i H @.1.%.>.<.m.a.h.j.3.;.,.'  .| ",
"S B l n 9 l V F c i s g l h P I G C D ( z b x s r a j s 9 p a s f p g f d f s s M l M T E G w e n x g k ` x B M M Z m V g l A D ",
"W N R F A #.q.h.-.=.#.| / ] >.8.@.-.>.w.o. .o.` X.6.6.>.[ ` / h ^ { } ..=.[ _ W W ] | Y F D ^ P ~ ] R U ! Z ) X.) ]  .R ( ~ #.K ",
"E %.-.' &.1.5.&.9.;.w.k.>.=.<.2.#.X...X.~ 2.| 7.y.t.r.v.w.&.&.j ( $.$.1.q.5.$.q.9.+.W R *.$.&.=.] ) ` ' E X.2.e.>./ 2.} { 8.*.f ",
"' 5.r.$.&.) >.<.4.+.<.z.7.>.>.e.4.~ ) ..8.o.>.w.u.z.A.s.w.7.=.j R o.5.4.&.w.3.>.@.+.S E @.| { X.O. .#.R o.| ' ;.[ ' ^ +.7.s.r.k ",
"O.1.+.X.L } :.*. ...*.>.c.2.<.&.8.[ o.,.&.y.i.p.-.x.6.5.0.t.=.a U ;.6.#.=.) { :.^ =.Z ) ] ) q.&.;.[ Q X.[ &.( O.' Y ] 9.4.q.>.s ",
"9.*. ._ K 9.9.X.[ / ^ ;.s.0.@.<.y.=.( { 4.d.M.J.l.5.8.#.=.$.o.p ` 8.d.5.;.| ^ } X.) I %. ...6.E  .K ( #.5.u.h...' $.| #.9.X.r.j ",
"<...P E ,.j.<.@.X.Q ] -.p.9.2.3.0.9.%.2.j.S.P.p.;.$.*...;.W  .s ,.9.$.%.O.]  .' %.[ ] O.#.' _ Y E W :.6.4.z.v.k.t.F.g.X.' o.@.l ",
"X.1...! 9.f.w.%.T ] =.} 3.<.<.r.5.:.' X.4.u.c.2.{ &.X.}  .$.&.A ` ,.>.o.| } ^ $.T ^ O./ { ~ ) ) / ! *.e.i.v.P.F.N.D.C.p.&.[ ] z ",
"R [ E U e.l.e.=.&.1.{ ! &.O.3.O.6.6.*. .4.s.9.O.*.$.' ] >.*.&.B R 5.X.| +. .-.@.;.<.3.{ ) ) } +.X.} *.3.0.v.T._.F.`.c.m.n.,./ N ",
"D T ! ,.f.M.M.i.y.../ O.[ <.+.@.$.-.o.' ' y.p.3.' #._ Y O.X.&.v W 5.&.@.:.8.a.6.<.0.,. .X.` +.,.>.>. .1.4.g.Y.V.}.E.^.L.J.F.v.I ",
"-.h.4.i.i.z.C.6.y.| ' { $. .0.&.o.o.] / $.q.f.w.#._ Q / :.9...a [ ..:.>.-.t.i.;.@.%.<...` } $.$.>.2.>.<.$.5.C.H.E.K.R.C.T./.Y.F ",
"e.B.s.v.x.k.n.w.n.e.&.<.&.8.&.o.,.o.' ] 4.d.k. .$.1.4.i.2.@.| d Y ` %.=.2.>.>.,.&.O...[ H.9.>.@.&.;.1.d.-.u.h.i.k.N.L.B.S.T.J.~ ",
"<.G.S.U.H.N.m.j.g.M.Z.>.) 2.3.X.4.0.[ ' h.w.O...~ -. .&.-.<...a L | _ @.r.3.;.:.+.:.|  .w.=. .O.4.8.y.0.s.9.#.$.&.h.N.M.g.7.k.7.",
"/ p.V.K.J.G.C.b.d.x.v.d.+.r.9.h.p.d.0.;.=.&.%.:._ [ / ] +. .3.! P | :.2.5.<.X.,.+.o.| &.@.,...o.1.9.=.2.=.7.>.O.X.u.g.6.%.>.&.[ ",
"F u.m.A.E.E.B.l.j.b.l.p.#.:.y.-.s.u.8.j.p.d.y.X.[ ' ] #.` ..@.P F &.,.4.>.{ <.#.+.W ] Q ( &.o.+.$.@.5.1.8.@.+.' %.g.2.$.#.| -.k ",
"~ b.c.n.Y.E.z.w.y.s.a.u.:.>.r.1.>.u.8.g.p.9.4.&.*.[  .<.#.3./ i _ 5.t.3.:.$.| E | ..6.&._  .( ^ } %.2.7.y.<.} X.o.7.#.@.+.>.<.t ",
"C k F J E W k z l z b b N l l k n C n S L L D i k i i v n i y 8 t v S N h p f i m L L V V n k c N D V z v k t g z N c x z Y I y ",
"G I [ &.e.v.6.0.=.O.*.+.$.( X.c -.:.,...+.` >.2.-./ ] @.o.} /  ._ @.&.+. .E Q W Q ^ $.R Y D C l P R ! ' ~ P Y T ] e.O._ / 8. .X.",
";.[ E m.H.b.z.p.u.8.#.1.$.+.=.a  .M.b.5.-.1.:.4.5.o.X.-.{ } ` _ { ' $.6.9.1.+.` ! %.;.| { ^ 0.i ] +.=.-.s.1.%.! ~ 2.=.%.<.6.5.( ",
"R R :.a.A.B.b.Z.d.6.5.,.<.=.>.t ` 0.e.2.y.O.] O...] :.X..._ ] ! %.E +.<.7.1.;.>.;.( / Z $.r.9.g _ 6.,.7.j.%.<.<.^ 4.&.<...*.] E ",
"! ,.e.v.f.f.y.K.Y.b.w.$.8.o. .k X.+.>.%.| o.@.{ ~ ] O...^ ` ' ^ T  .@.*.,.2.=.:.O.@.+.*.=.@...h !  .-.6.<.%.o.,.o.<.$.-.&. .#.Q ",
"Q ..=.9.p.3.l.M.M.p.[ <.X.#.=.M <.6.q.*.Q ` ' ~ ] ^ O.W Q #.+.' ` +.#.} | #.{ O.| O.%.;.=.#.O.w ' >.:.w.1.Q =. .K %.>.] ' ! E Q ",
"$.8.4.q.r.k.C.e.d.s.e.-.o.:.9.C ..6.,.| ) } ] ) _ _ ) ^ ] %.<.5.>.&.&.o.o.X.] [ @.@.k.a.,.X.| i b X.( >.3.+.] | O.;.X.} Y ( / ` ",
"O.t.i.3.g.c.L.C.8.x.J.1.O.X.9.M ` 7.@.>.` *.(  .o.[ X.[ #.;.f.s.X...] | -.' | %.#.e.1.6.0.7.! a n &...) %.! ( .._ =.%./ ' @.O. .",
"$.c.B.g.k.h.n.R.c.I.L.3.X.<.-.c X.p.y.&.%.>.X.Q ' ^ %.o.$.9.k.s.w.@.=.{ =.*.-.r.0.d.%.i.p.*.@.l J $.X.o.W Y $.O.| &.+.` ' _ ` / ",
"<.h.D.I.I.C.Z.J.A.Q.A.*. .-.#.n ` -.<...| O.! o.U +.-.o.&.6.p.e.r.$.$.R :.*.O.w.7.0.$.0.f.0.-.b T @.} / ] ! ' ~ [ ' @.#._ +.T ] ",
">.N.B.(.{.~.}.*X`.U.Z.5.X.,.%.x }  .) ` X.-.} ;.T +...%.=.6.3.#.>.@.^ ] | &.5.9.>.-.#.9.9.2.,.g T E @.} @.#.~ ' _ / ;.) } ] X.*.",
"a.x.x.Y.(.E.~.[.P.Z.B.#.@.1.] r _ %.9.[ X.! ` K / +.$.=.1.<.$.=.X.] ( E $.$.4.%.-.` | @.7.6.$.j T { ) w.>.:.#.<.-.&.` Y ' t.f.7.",
"b.j.B.Y.E.J.(..X^.z.w.$.[ ^ } j #.=...E E ! U ~ } =.O.X.-.*.$.%.O.| } O.&...| ~ T { / / *.o.o.i B ~ P @.2.p.r.n.x.7.>.*.<.e.z.c.",
"h.h.D.Y.H.R.[.|.Q.n.2.=.{ X.] e ~ O.~ ( >.o.$.,.>.O.X. .+.-.*.:.;.$.;.*.O.../ o.] _ E -.| / ' y H ) =.&.t.a.J.a.h.f.t.<.y.b.g.f.",
"i.a.C.F.n.B.W.(.W.k.a.9.>.[ ' u ! / E >.<.t.;.2.>.;.#.&.-.1.1.1.-.>.0.*.] ! O.o.E Q o.o.! _ ! q ~ &.4.0.q.s.u.v.K.j.h.f.c.N.r.r.",
"7.5.q.h.C.M.E.Y.F.K.H.k.a.[ [ N %.9.r.j.h.%.-.:.2.1.,.>.4.7.,.;.;.>.>.5.2.1.,.'  .Q o.O.&. .{ t / o.0.w.x.M.Z.Z.S.M.i.f.j.i.3.r.",
"a k k Z h s ~ Q V I I P v N z v F F S S b t s f f N c A n z k j m z h x v x h x m h d f s g s t p j d v B B Y :.p.-.n N l l a f "
};
